<?xml version="1.0" encoding="utf-8"?>
<!-- Generator: Adobe Illustrator 19.1.0, SVG Export Plug-In . SVG Version: 6.00 Build 0)  -->
<svg version="1.1" id="Layer_1" xmlns="http://www.w3.org/2000/svg" xmlns:xlink="http://www.w3.org/1999/xlink" x="0px" y="0px"
	 viewBox="0 0 25 25" style="enable-background:new 0 0 25 25;" xml:space="preserve">
<path id="tweet" style="fill:none;stroke:#FFFFFF;stroke-linecap:round;stroke-linejoin:round;" d="M21.1,7.9c-0.3-2.1-1.7-3.4-3.7-3.4
	c-1.9,0-4,1.2-5.2,3.2C11.6,7.3,10,6.4,7.3,6.4C6.9,6.4,4.1,6.5,4.1,7c0,0.2,0.6,4.3,3.8,5.6c-1,0.4-0.6,0.3-1.7-0.1
	c-1.3-0.5-2.9-0.9-3.5,0.3c-0.3,0.5-0.1,1,0.5,1.5c-1,0.2-1.7,0.6-1.8,1.1c-0.4,1.3,1.8,2.2,3.1,2.4c1.1,0.1,1.9,0.2,3.2-0.3
	c0,0,0,0,0,0c1.3,1.9,3.3,2.5,5.5,2.3c7.8-0.7,8.1-7.7,8.1-8.8C25.1,9.4,25,10.1,21.1,7.9z M18.1,8.4c0,0.3-0.2,0.5-0.5,0.5
	c-0.3,0-0.5-0.2-0.5-0.5c0-0.3,0.2-0.5,0.5-0.5C17.9,7.9,18.1,8.1,18.1,8.4z"/>
</svg>
