<?xml version="1.0" encoding="utf-8"?>
<!-- Generator: Adobe Illustrator 19.1.0, SVG Export Plug-In . SVG Version: 6.00 Build 0)  -->
<svg version="1.1" id="Layer_1" xmlns="http://www.w3.org/2000/svg" xmlns:xlink="http://www.w3.org/1999/xlink" x="0px" y="0px"
	 viewBox="-357 261.8 243.8 38.2" style="enable-background:new -357 261.8 243.8 38.2;" xml:space="preserve">
<g style="enable-background:new    ;">
	<path style="fill:#FFFFFF;" d="M-528.8,668.5h4.5v19.1c0,2,0.7,2.5,1.9,2.5c0.4,0,0.7,0,0.7,0v4c0,0-0.7,0.1-1.4,0.1
		c-2.5,0-5.7-0.6-5.7-5.9V668.5z"/>
</g>
<g style="enable-background:new    ;">
	<path style="fill:#FFFFFF;" d="M-508.5,682.6h0.6v-0.3c0-2.4-1.5-3.2-3.5-3.2c-2.6,0-5,1.8-5,1.8l-1.7-3.3c0,0,2.8-2.3,7.2-2.3
		c4.8,0,7.6,2.7,7.6,7.3v11.5h-4.2v-1.5c0-0.7,0.1-1.3,0.1-1.3h-0.1c0,0-1.4,3.2-5.6,3.2c-3.3,0-6.2-2.1-6.2-5.7
		C-519.3,683-511.4,682.6-508.5,682.6z M-511.9,691c2.4,0,4.1-2.6,4.1-4.8v-0.4h-0.8c-2.3,0-6.1,0.3-6.1,2.9
		C-514.7,689.8-513.8,691-511.9,691z"/>
	<path style="fill:#FFFFFF;" d="M-498.8,675.7h4.6v10.9c0,2.2,0.6,3.7,2.8,3.7c3.3,0,5.1-2.9,5.1-6.2v-8.4h4.6v18.4h-4.4V692
		c0-0.7,0.1-1.3,0.1-1.3h-0.1c-0.9,1.9-3.2,3.8-6.4,3.8c-3.9,0-6.4-2-6.4-7V675.7z"/>
</g>
<g style="enable-background:new    ;">
	<path style="fill:#FFFFFF;" d="M-478.3,675.7h4.4v3.2c0,0.7-0.1,1.3-0.1,1.3h0.1c0.8-2.6,3-4.7,5.8-4.7c0.4,0,0.8,0.1,0.8,0.1v4.5
		c0,0-0.5-0.1-1.1-0.1c-1.9,0-4.1,1.1-5,3.9c-0.3,0.9-0.4,1.9-0.4,3v7.3h-4.6V675.7z"/>
	<path style="fill:#FFFFFF;" d="M-456.1,675.3c5.3,0,8.1,3.9,8.1,8.7c0,0.5-0.1,1.8-0.1,1.8h-12.7c0.3,3.2,2.8,4.9,5.5,4.9
		c3,0,5.3-2,5.3-2l1.8,3.3c0,0-2.8,2.6-7.4,2.6c-6.1,0-9.9-4.4-9.9-9.6C-465.4,679.3-461.6,675.3-456.1,675.3z M-452.6,682.6
		c-0.1-2.5-1.6-3.8-3.6-3.8c-2.3,0-4,1.4-4.4,3.8H-452.6z"/>
</g>
<g style="enable-background:new    ;">
	<path style="fill:#FFFFFF;" d="M-444.8,675.7h4.4v2.1c0,0.7-0.1,1.3-0.1,1.3h0.1c0.8-1.5,2.8-3.8,6.5-3.8c4.1,0,6.4,2.1,6.4,7v11.8
		h-4.5v-10.9c0-2.2-0.6-3.7-2.9-3.7c-2.4,0-4.2,1.5-4.9,3.7c-0.3,0.8-0.3,1.6-0.3,2.4v8.4h-4.6V675.7z"/>
</g>
<g style="enable-background:new    ;">
	<path style="fill:#39A8E0;" d="M-413.6,675.3c4,0,5.3,2.3,5.3,2.3h0.1c0,0,0-0.5,0-1v-8.1h4.6v25.6h-4.3v-1.5
		c0-0.7,0.1-1.2,0.1-1.2h-0.1c0,0-1.5,3.1-5.8,3.1c-5,0-8.1-3.9-8.1-9.6C-421.9,679.1-418.5,675.3-413.6,675.3z M-412.8,690.7
		c2.4,0,4.6-1.7,4.6-5.8c0-2.8-1.5-5.7-4.6-5.7c-2.5,0-4.6,2.1-4.6,5.7C-417.3,688.4-415.5,690.7-412.8,690.7z"/>
</g>
<g style="enable-background:new    ;">
	<path style="fill:#39A8E0;" d="M-390.6,675.3c5.6,0,10.1,4,10.1,9.6c0,5.7-4.5,9.6-10.1,9.6c-5.6,0-10.1-4-10.1-9.6
		C-400.6,679.3-396.1,675.3-390.6,675.3z M-390.5,690.6c3,0,5.4-2.3,5.4-5.7c0-3.4-2.5-5.7-5.4-5.7c-3,0-5.5,2.3-5.5,5.7
		C-396,688.3-393.5,690.6-390.5,690.6z"/>
</g>
<g style="enable-background:new    ;">
	<path style="fill:#39A8E0;" d="M-368.8,675.3c5.3,0,8.1,3.9,8.1,8.7c0,0.5-0.1,1.8-0.1,1.8h-12.7c0.3,3.2,2.8,4.9,5.5,4.9
		c3,0,5.3-2,5.3-2l1.8,3.3c0,0-2.8,2.6-7.4,2.6c-6.1,0-9.9-4.4-9.9-9.6C-378.1,679.3-374.2,675.3-368.8,675.3z M-365.2,682.6
		c-0.1-2.5-1.6-3.8-3.6-3.8c-2.3,0-4,1.4-4.4,3.8H-365.2z"/>
</g>
<g style="enable-background:new    ;">
	<path style="fill:#39A8E0;" d="M-356,688.6c0,0,2,2,5,2c1.3,0,2.4-0.6,2.4-1.7c0-2.7-8.9-2.4-8.9-8.3c0-3.4,3.1-5.4,7-5.4
		c4.1,0,6.2,2.1,6.2,2.1l-1.7,3.4c0,0-1.7-1.6-4.5-1.6c-1.2,0-2.3,0.5-2.3,1.7c0,2.6,8.9,2.3,8.9,8.2c0,3.1-2.7,5.5-7,5.5
		c-4.6,0-7.1-2.7-7.1-2.7L-356,688.6z"/>
</g>
<g>
	<path style="fill:#FFFFFF;" d="M-301.8,693.8h-26.4c-3.7,0-6.5-2.9-6.5-6.5V684h4.5v3.3c0,1.1,0.9,2,2,2h26.4c1.1,0,2-0.9,2-2V684
		h4.5v3.3C-295.2,691-298.1,693.8-301.8,693.8z"/>
</g>
</svg>
