<?xml version="1.0" encoding="utf-8"?>
<!-- Generator: Adobe Illustrator 19.1.0, SVG Export Plug-In . SVG Version: 6.00 Build 0)  -->
<svg version="1.1" xmlns="http://www.w3.org/2000/svg" xmlns:xlink="http://www.w3.org/1999/xlink" x="0px" y="0px"
	 viewBox="5085 5360.2 1184.9 428.9" style="enable-background:new 5085 5360.2 1184.9 428.9;" xml:space="preserve">
<style type="text/css">
	.st0{fill:#FFFFFF;stroke:#0FB6CC;stroke-width:2;stroke-linejoin:round;stroke-miterlimit:10;}
	.st1{fill:none;stroke:#0FB6CC;stroke-width:2;stroke-linecap:round;stroke-linejoin:round;stroke-miterlimit:10;}
	.st2{fill:none;stroke:#0FB6CC;stroke-width:2;stroke-linejoin:round;stroke-miterlimit:10;}
	.st3{fill:#FFFFFF;}
	.st4{clip-path:url(#SVGID_2_);fill:#491955;}
	.st5{clip-path:url(#SVGID_2_);fill:#F6246D;}
	.st6{clip-path:url(#SVGID_2_);fill:#33C341;}
	.st7{clip-path:url(#SVGID_2_);fill:#FFD406;}
	.st8{clip-path:url(#SVGID_4_);fill:#FFD406;}
	.st9{clip-path:url(#SVGID_4_);fill:#491955;}
	.st10{clip-path:url(#SVGID_4_);fill:#33C341;}
	.st11{clip-path:url(#SVGID_4_);fill:#F6246D;}
	.st12{fill:#491955;}
	.st13{fill:#FFFFFF;stroke:#0FB6CC;stroke-width:3;stroke-linejoin:round;stroke-miterlimit:10;}
	.st14{fill:#FFFFFF;stroke:#1D1D1B;stroke-width:3.0076;stroke-miterlimit:10;}
	.st15{fill:none;}
	.st16{fill:#231F20;}
	.st17{fill:#383838;}
	.st18{fill:#222222;}
	.st19{fill:#FFFFFF;stroke:#1D1D1B;stroke-width:3.4433;stroke-linecap:round;stroke-linejoin:round;stroke-miterlimit:10;}
	.st20{fill:none;stroke:#1D1D1B;stroke-width:3.4433;stroke-linecap:round;stroke-linejoin:round;stroke-miterlimit:10;}
	.st21{fill:none;stroke:#1D1D1B;stroke-width:3.4433;stroke-linecap:round;stroke-miterlimit:10;}
	.st22{fill:#1D1D1B;stroke:#1D1D1B;stroke-width:1.0873;stroke-miterlimit:10;}
	.st23{fill:#FFFFFF;stroke:#1D1D1B;stroke-width:3.439;stroke-miterlimit:10;}
	.st24{fill:#FFFFFF;stroke:#1D1D1B;stroke-width:3.439;stroke-linejoin:round;stroke-miterlimit:10;}
	.st25{fill:none;stroke:#1D1D1B;stroke-width:3.439;stroke-linejoin:round;stroke-miterlimit:10;}
	.st26{fill:#1D1D1B;}
	.st27{fill:#33C341;}
	.st28{fill:none;stroke:#33C341;stroke-width:4;stroke-miterlimit:10;}
	.st29{fill:#3AD6AE;}
	.st30{fill:none;stroke:#E5007E;stroke-width:3.8337;stroke-linecap:square;stroke-miterlimit:10;}
	.st31{fill:none;stroke:#E5007E;stroke-width:3.8337;stroke-miterlimit:10;}
	.st32{fill:#E5007E;}
	.st33{fill:#D01319;}
	.st34{fill:#54B372;}
	.st35{fill:#4B85C5;}
	.st36{fill:#20B6C9;}
	.st37{fill:#C24592;}
	.st38{fill:#FCCA00;}
	.st39{fill:#FB40A2;}
	.st40{fill:#6B54B9;}
	.st41{fill:#EFE861;}
	.st42{fill:#6CB756;}
	.st43{fill:#228CCC;}
	.st44{fill:#FFCE06;}
	.st45{fill:#00C6EE;}
	.st46{fill:#FF1703;}
	.st47{fill:#551C12;}
	.st48{fill:#84D203;}
	.st49{fill:#F6246D;}
	.st50{fill:#FFD406;}
	.st51{fill:#A85988;}
	.st52{fill:#00B9CE;}
	.st53{fill:#F85558;}
	.st54{fill:#FFFFFF;stroke:#1D1D1B;stroke-width:12.7802;stroke-miterlimit:10;}
	.st55{fill:#FFFFFF;stroke:#1D1D1B;stroke-width:12.7802;stroke-linejoin:round;stroke-miterlimit:10;}
	.st56{fill:none;stroke:#1D1D1B;stroke-width:12.7802;stroke-linejoin:round;stroke-miterlimit:10;}
	.st57{fill:none;stroke:#0FB6CC;stroke-width:5;stroke-linejoin:round;stroke-miterlimit:10;}
	.st58{fill:none;stroke:#0FB6CC;stroke-width:2;stroke-miterlimit:10;}
	.st59{fill:none;stroke:#0FB6CC;stroke-width:3;stroke-linejoin:round;stroke-miterlimit:10;}
	.st60{fill:none;stroke:#0FB6CC;stroke-width:3;stroke-linecap:round;stroke-linejoin:round;stroke-miterlimit:10;}
	.st61{fill:none;stroke:#000000;stroke-width:4.5;stroke-linejoin:round;stroke-miterlimit:10;}
	.st62{fill:none;stroke:#0FB6CC;stroke-width:2.5;stroke-linejoin:round;stroke-miterlimit:10;}
	.st63{fill:#0FB6CC;}
	.st64{fill:#FFFFFF;stroke:#0FB6CC;stroke-width:2.5;stroke-linejoin:round;stroke-miterlimit:10;}
	.st65{fill:none;stroke:#0FB6CC;stroke-width:2.5;stroke-linecap:round;stroke-linejoin:round;stroke-miterlimit:10;}
	.st66{fill:none;stroke:#0FB6CC;stroke-width:2.5;stroke-miterlimit:10;}
	.st67{fill:#FFFFFF;stroke:#0FB6CC;stroke-width:2;stroke-linecap:round;stroke-linejoin:round;stroke-miterlimit:10;}
	.st68{fill:#FFFFFF;stroke:#000000;stroke-width:2;stroke-linecap:round;stroke-linejoin:round;stroke-miterlimit:10;}
	.st69{fill:none;stroke:#000000;stroke-width:2;stroke-linecap:round;stroke-linejoin:round;stroke-miterlimit:10;}
	.st70{fill:none;stroke:#000000;stroke-width:2;stroke-linejoin:round;stroke-miterlimit:10;}
	.st71{fill:#FFFFFF;stroke:#000000;stroke-width:2;stroke-linejoin:round;stroke-miterlimit:10;}
	.st72{fill:none;stroke:#000000;stroke-width:2;stroke-miterlimit:10;}
</style>
<g id="Layer_2">
</g>
<g id="Layer_1">
	<g>
		<g>
			<line class="st68" x1="5419" y1="5697.2" x2="5419" y2="5626.9"/>
			<line class="st68" x1="5423.3" y1="5626.9" x2="5423.3" y2="5697.2"/>
			<line class="st68" x1="5419" y1="5626.9" x2="5382.2" y2="5575.4"/>
			<line class="st68" x1="5423.3" y1="5626.9" x2="5460.1" y2="5575.4"/>
			<path class="st68" d="M5428.6,5696.7c0-4.1-3.3-7.4-7.4-7.4c-4.1,0-7.4,3.3-7.4,7.4"/>
			<line class="st69" x1="5388.2" y1="5697.2" x2="5454.1" y2="5697.2"/>
			<line class="st69" x1="5419" y1="5626.9" x2="5423.4" y2="5626.9"/>
			<path class="st69" d="M5391.1,5587.8l2.6,2.6c1.4,1.4,3.6,1.4,4.9,0l0.1-0.1c1.4-1.4,3.6-1.4,4.9,0l0.1,0.1
				c1.4,1.4,3.6,1.4,4.9,0l0,0c1.4-1.4,3.6-1.4,4.9,0l0.1,0.1c1.4,1.4,3.6,1.4,4.9,0l0.2-0.2c1.4-1.4,3.6-1.4,4.9,0l0.1,0.1
				c1.4,1.4,3.6,1.4,4.9,0l0,0c1.4-1.4,3.6-1.4,4.9,0l0,0c1.4,1.4,3.6,1.4,4.9,0l0.1-0.1c1.4-1.4,3.6-1.4,4.9,0l0.2,0.2
				c1.4,1.4,3.6,1.4,4.9,0l2.6-2.6"/>
		</g>
		<g>
			<line class="st69" x1="6157.5" y1="5448.3" x2="6166.6" y2="5463.9"/>
			<g>
				<rect x="6152.9" y="5523.1" class="st70" width="19.1" height="7.9"/>
				<line class="st69" x1="6155.6" y1="5535.8" x2="6117.3" y2="5698.6"/>
				<line class="st69" x1="6160.7" y1="5535.8" x2="6142.3" y2="5613.7"/>
				<line class="st69" x1="6170.9" y1="5535.8" x2="6209.3" y2="5698.6"/>
				<line class="st69" x1="6165.8" y1="5535.8" x2="6184.2" y2="5613.7"/>
				
					<rect x="6131.8" y="5481" transform="matrix(0.862 -0.5069 0.5069 0.862 -1935.5291 3878.5623)" class="st70" width="49.4" height="27"/>
				<line class="st69" x1="6187.4" y1="5499.5" x2="6196.6" y2="5515.1"/>
				<circle class="st69" cx="6162.5" cy="5516" r="2.7"/>
			</g>
		</g>
		<g>
			<rect x="5618.6" y="5475.1" class="st70" width="30.2" height="30.2"/>
			<circle class="st70" cx="5633.7" cy="5490.2" r="10.6"/>
			<polygon class="st70" points="5638.2,5460 5629.2,5460 5618.6,5470.6 5648.9,5470.6 			"/>
			<polygon class="st70" points="5629.2,5520.4 5638.2,5520.4 5648.9,5509.8 5618.6,5509.8 			"/>
			<polygon class="st70" points="5603.5,5485.7 5603.5,5494.7 5614.1,5505.3 5614.1,5475.1 			"/>
			<polygon class="st70" points="5663.9,5494.7 5663.9,5485.7 5653.3,5475.1 5653.3,5505.3 			"/>
			<rect x="5624.3" y="5525.7" class="st70" width="18.8" height="7.8"/>
			<line class="st69" x1="5627" y1="5538.3" x2="5589.1" y2="5699.1"/>
			<line class="st69" x1="5631.9" y1="5538.3" x2="5613.8" y2="5615.2"/>
			<line class="st69" x1="5642" y1="5538.3" x2="5679.9" y2="5699.1"/>
			<line class="st69" x1="5637" y1="5538.3" x2="5655.2" y2="5615.2"/>
		</g>
		<g>
			<rect x="6040" y="5501" class="st71" width="46.2" height="31.6"/>
			<polyline class="st70" points="6035.3,5532.4 6035.3,5551.1 6020.7,5699 			"/>
			<path class="st70" d="M6086.2,5532.6v19.2c0,0.1,0,0.3,0,0.4c-0.2,12.6-10.5,22.7-23.1,22.7c-12.6,0-22.9-10.1-23.1-22.7
				c0-0.1,0-0.3,0-0.4v-19.2H6086.2z"/>
			<polyline class="st70" points="6091.1,5532.4 6091.1,5532.6 6091.1,5551.1 6094.8,5588.1 6105.7,5699 			"/>
			<polyline class="st70" points="6063.1,5699 6063.1,5643.7 6063.1,5588.1 6063.1,5574.9 			"/>
			<line class="st70" x1="6063.1" y1="5576" x2="6063.1" y2="5532.9"/>
			<polyline class="st70" points="6040,5501 6063.1,5477.8 6086.2,5501 			"/>
			<line class="st70" x1="6031.4" y1="5588.1" x2="6095" y2="5588.1"/>
			<line class="st70" x1="6026.3" y1="5643.7" x2="6100.1" y2="5643.7"/>
			<polyline class="st70" points="6031.4,5532.6 6035.3,5532.6 6040,5532.6 			"/>
			<polyline class="st70" points="6086.2,5532.6 6091.1,5532.6 6095,5532.6 			"/>
		</g>
		<g>
			<polyline class="st70" points="5824.5,5517.4 5873.1,5468.8 5921.7,5517.4 			"/>
			<polyline class="st70" points="5826.7,5519.5 5873.1,5473.1 5919.6,5519.5 			"/>
			<line class="st70" x1="5830.2" y1="5516.3" x2="5830.2" y2="5544.7"/>
			<line class="st70" x1="5915.7" y1="5516.1" x2="5915.7" y2="5544.4"/>
			<polygon class="st70" points="6014.3,5625.9 6014.3,5699 5731.9,5699 5731.9,5625.8 5813.4,5544.4 5932.8,5544.4 			"/>
			<g>
				<rect x="5907.3" y="5630.7" class="st70" width="37.9" height="68.3"/>
				<line class="st70" x1="5907.3" y1="5630.7" x2="5945.1" y2="5699"/>
				<line class="st70" x1="5945.1" y1="5630.7" x2="5907.3" y2="5699"/>
			</g>
			<g>
				<rect x="5873.1" y="5569.4" class="st70" width="20.2" height="36.5"/>
				<line class="st70" x1="5873.1" y1="5569.4" x2="5893.3" y2="5605.9"/>
				<line class="st70" x1="5893.3" y1="5569.4" x2="5873.1" y2="5605.9"/>
			</g>
			<g>
				<rect x="5852.9" y="5569.4" class="st70" width="20.2" height="36.5"/>
				<line class="st70" x1="5852.9" y1="5569.4" x2="5873.1" y2="5605.9"/>
				<line class="st70" x1="5873.1" y1="5569.4" x2="5852.9" y2="5605.9"/>
			</g>
			<g>
				<rect x="5801.1" y="5630.7" class="st70" width="37.9" height="68.3"/>
				<line class="st70" x1="5801.1" y1="5630.7" x2="5838.9" y2="5699"/>
				<line class="st70" x1="5838.9" y1="5630.7" x2="5801.1" y2="5699"/>
			</g>
			<rect x="5838.9" y="5630.7" class="st70" width="68.3" height="68.3"/>
			<rect x="5763.4" y="5630.7" class="st70" width="19.2" height="29.5"/>
			<rect x="5964.3" y="5630.7" class="st70" width="19.2" height="29.5"/>
			<circle class="st70" cx="5873.1" cy="5514.6" r="7.1"/>
			<line class="st70" x1="5773" y1="5630.7" x2="5773" y2="5660.1"/>
			<line class="st70" x1="5973.9" y1="5630.7" x2="5973.9" y2="5660.1"/>
			<polygon class="st70" points="6014.3,5630.7 6014.3,5699 5731.9,5699 5731.9,5630.6 5814.9,5547.6 5931.2,5547.6 			"/>
		</g>
		<path class="st71" d="M5897.7,5699l678.2,0l7.1-108.2c-95-23.1-167.3-16.1-167.3-16.1l-145.8-1.5c-43.3,0-71,0.2-127.6,34.2
			c-105,63-139.2,91.8-244.3,91.8"/>
		<g>
			<rect x="5143.2" y="5622.5" class="st70" width="123.5" height="76.5"/>
			<circle class="st70" cx="5243.4" cy="5674.8" r="17.5"/>
			<circle class="st70" cx="5243.4" cy="5674.8" r="8.9"/>
			<circle class="st70" cx="5165.4" cy="5674.8" r="17.5"/>
			<circle class="st70" cx="5165.4" cy="5674.8" r="8.9"/>
			<circle class="st70" cx="5199.3" cy="5675.8" r="3.6"/>
			<circle class="st70" cx="5210" cy="5675.8" r="3.6"/>
			<circle class="st70" cx="5257.2" cy="5633.2" r="3.7"/>
			<rect x="5148.9" y="5628.5" class="st70" width="100.6" height="8.4"/>
			<rect x="5187.9" y="5649.4" class="st70" width="33.7" height="44"/>
			<rect x="5192.5" y="5669.3" class="st70" width="24.2" height="13.1"/>
			<line class="st70" x1="5188.4" y1="5686.9" x2="5221.6" y2="5686.9"/>
			<line class="st70" x1="5213.2" y1="5686.9" x2="5213.2" y2="5693.7"/>
			<line class="st70" x1="5217.4" y1="5686.9" x2="5217.4" y2="5693.7"/>
			<line class="st70" x1="5221.6" y1="5686.9" x2="5221.6" y2="5693.7"/>
			<line class="st70" x1="5187.9" y1="5686.9" x2="5187.9" y2="5693"/>
			<line class="st70" x1="5192.1" y1="5686.9" x2="5192.1" y2="5693"/>
			<line class="st70" x1="5196.3" y1="5686.9" x2="5196.3" y2="5693"/>
			<line class="st70" x1="5200.5" y1="5686.9" x2="5200.5" y2="5693"/>
			<line class="st70" x1="5204.7" y1="5686.9" x2="5204.7" y2="5693"/>
			<line class="st70" x1="5208.9" y1="5686.9" x2="5208.9" y2="5693"/>
			<line class="st70" x1="5147.8" y1="5643.7" x2="5263.2" y2="5643.7"/>
			<polyline class="st70" points="5152,5630.9 5155.5,5634.4 5158.9,5631 5162.3,5634.4 5165.8,5630.9 5169.3,5634.4 5172.7,5630.9 
				5176.2,5634.4 5179.7,5630.9 5183.2,5634.4 5186.7,5630.9 5190.2,5634.4 5193.7,5630.9 5197.2,5634.4 5200.7,5630.9 
				5204.2,5634.4 5207.7,5630.9 5211.2,5634.4 5214.7,5630.9 5218.2,5634.4 5221.7,5630.9 5225.1,5634.4 5228.6,5630.9 
				5232.1,5634.4 5235.6,5630.9 5239.1,5634.4 5242.6,5630.9 5246.1,5634.4 			"/>
			<polyline class="st70" points="5147.9,5622.7 5147.9,5617.8 5152.9,5617.8 5152.9,5612.8 5157.8,5612.8 5157.8,5607.9 
				5162.8,5607.9 5162.8,5603 5167.7,5603 5167.7,5600.3 5197.9,5570.1 			"/>
			<circle class="st70" cx="5200.3" cy="5567.7" r="3.6"/>
		</g>
		<g>
			<polygon class="st68" points="5385.5,5596.4 5385.5,5614.5 5385.5,5614.5 5399.6,5628.6 5399.6,5699 5356.6,5699 5356.6,5628.6 
				5370.6,5614.5 5370.6,5614.5 5370.6,5596.4 			"/>
			<rect x="5363.4" y="5634.8" class="st70" width="29.1" height="56.6"/>
			<path class="st71" d="M5387.1,5601.9h-18c-0.8,0-1.4,0.6-1.4,1.4c0,0.8,0.6,1.4,1.4,1.4h18c0.8,0,1.4-0.6,1.4-1.4
				C5388.5,5602.5,5387.9,5601.9,5387.1,5601.9z"/>
			<line class="st70" x1="5356.6" y1="5643.2" x2="5362.3" y2="5643.2"/>
			<line class="st70" x1="5392.5" y1="5643.2" x2="5399.7" y2="5643.2"/>
		</g>
		<g>
			<polygon class="st70" points="5325.4,5564.1 5323.1,5577.5 5299.9,5577.5 5297.5,5564.1 			"/>
			<rect x="5285.2" y="5635.2" class="st70" width="51.9" height="42.2"/>
			<path class="st70" d="M5345.4,5617.4v81.6h-68v-81.6c0-5.8,4.7-10.5,10.5-10.5h12.5v-18.5h-2.9v-10.9h27.9v10.9h-2.9v18.5h12.5
				C5340.7,5607,5345.4,5611.7,5345.4,5617.4z"/>
			<path class="st72" d="M5330,5616.9c-0.1,0-3.4,5.4-3.4,7.3s1.5,3.4,3.4,3.4c1.9,0,3.4-1.5,3.4-3.4S5330,5616.9,5330,5616.9z"/>
			<line class="st70" x1="5300.4" y1="5599.4" x2="5322.5" y2="5599.4"/>
		</g>
		<line class="st70" x1="5035.9" y1="5699" x2="6342.8" y2="5699"/>
		<g id="chicken">
			<path class="st71" d="M5539.3,5634.2c-0.5-5.6-5.1-10-10.6-10.6c-6.4-0.6-11.9,4-12.8,10.1l0,0c-0.2,0,0.4,13.5-16.4,13.5H5484
				c-5.1-15.3-18.6-14.5-18.6-14.5v0c-1.9,0.1-3.5,1.5-3.8,3.5c-0.3,2.2,1.2,4.4,3.4,4.7c0.1,0,0.2,0,0.3,0v0
				c-1.6,0.1-2.9,1.2-3.2,2.9c-0.3,1.8,1,3.6,2.8,3.8c0.1,0,0.2,0,0.3,0v0c-1.2,0.1-2.1,1-2.3,2.2c-0.2,1.4,0.8,2.8,2.2,3
				c0.2,0,0.3,0,0.5,0c2.7,15,15.8,26.4,31.6,26.4c17.8,0,32.2-14.4,32.2-32.2l-0.1-0.2C5535.5,5646,5539.9,5640.5,5539.3,5634.2z"
				/>
			<circle class="st70" cx="5540.4" cy="5626.6" r="2.7"/>
			<circle class="st70" cx="5536.3" cy="5621.5" r="3.9"/>
			<circle class="st70" cx="5528.1" cy="5618.1" r="4.9"/>
			<polyline class="st70" points="5538.8,5630.8 5547.6,5634.8 5538.6,5638.9 			"/>
			<circle cx="5532.3" cy="5632.7" r="1.4"/>
			<polyline class="st69" points="5493.1,5679 5493.1,5697.2 5502.4,5697.2 			"/>
			<polyline class="st69" points="5499.6,5679 5499.6,5697.2 5508.9,5697.2 			"/>
		</g>
		<g id="chicken_x5F_eat">
			<polyline class="st69" points="5493.6,5679 5493.6,5697.2 5502.8,5697.2 			"/>
			<polyline class="st69" points="5500.1,5679 5500.1,5697.2 5509.3,5697.2 			"/>
			<path class="st71" d="M5547.4,5671.2c3.5-4.3,3.5-10.7,0-15c-4.1-5-11.2-5.6-16.2-1.9l0,0c-0.1-0.1-9.2,9.8-21.1-2.1l-10.9-10.9
				c7.2-14.4-2.9-23.4-2.9-23.4l0,0c-1.4-1.2-3.6-1.4-5.1-0.2c-1.8,1.3-2.2,3.9-0.9,5.8c0.1,0.1,0.1,0.2,0.2,0.3l0,0
				c-1.2-1-2.9-1.2-4.3-0.2c-1.5,1.1-1.8,3.2-0.7,4.7c0.1,0.1,0.1,0.2,0.2,0.3l0,0c-0.9-0.7-2.2-0.8-3.2-0.1
				c-1.2,0.9-1.4,2.5-0.6,3.7c0.1,0.1,0.2,0.2,0.3,0.3c-8.7,12.5-7.5,29.9,3.7,41c12.6,12.6,32.9,12.6,45.5,0l0.1-0.2
				C5536.4,5676.9,5543.4,5676.2,5547.4,5671.2z"/>
			<circle class="st70" cx="5553.5" cy="5666.6" r="2.7"/>
			<circle class="st70" cx="5554.3" cy="5660.1" r="3.9"/>
			<circle class="st70" cx="5550.9" cy="5652" r="4.9"/>
			<polyline class="st70" points="5549.5,5668.5 5552.9,5677.5 5543.5,5674.1 			"/>
			<circle cx="5543.5" cy="5665.2" r="1.4"/>
		</g>
		<g>
			<g>
				<polygon class="st70" points="5085,5548.2 5103.6,5524.9 5096.4,5513.4 5085,5513.4 5073.5,5513.4 5066.4,5524.9 				"/>
				<line class="st70" x1="5066.4" y1="5524.9" x2="5103.6" y2="5524.9"/>
				<polyline class="st70" points="5085,5513.4 5078.4,5524.9 5085,5548.2 				"/>
				<polyline class="st70" points="5085,5513.4 5091.6,5524.9 5085,5548.2 				"/>
				<line class="st70" x1="5091.6" y1="5524.9" x2="5096.4" y2="5513.4"/>
			</g>
			<g>
				<path class="st71" d="M5085,5659c0,0,52.9-15.6,21-33.3c0,0,27.1-25.4-1.2-32.5c0,0,15.1-22.7-19.8-43
					c-34.9,20.3-19.8,43-19.8,43c-28.2,7.1-1.2,32.5-1.2,32.5C5032.1,5643.4,5085,5659,5085,5659z"/>
				<line class="st70" x1="5085" y1="5607.1" x2="5085" y2="5643.4"/>
				<line class="st69" x1="5085" y1="5603.9" x2="5085" y2="5639.7"/>
				<line class="st70" x1="5085" y1="5659" x2="5085" y2="5698"/>
			</g>
		</g>
		<g>
			<g>
				<path class="st71" d="M6269.9,5527.6c0,0,58.4-17.3,23.2-36.8c0,0,29.9-28.1-1.3-35.9c0,0,16.7-25.1-21.9-47.5
					c-38.6,22.4-21.9,47.5-21.9,47.5c-31.2,7.8-1.3,35.9-1.3,35.9C6211.5,5510.3,6269.9,5527.6,6269.9,5527.6z"/>
				<line class="st70" x1="6269.9" y1="5470.3" x2="6269.9" y2="5510.3"/>
				<line class="st69" x1="6269.9" y1="5466.8" x2="6269.9" y2="5506.3"/>
				<line class="st70" x1="6269.9" y1="5527.6" x2="6269.9" y2="5570.7"/>
			</g>
		</g>
		<g>
			<line class="st70" x1="6117.3" y1="5699" x2="6117.3" y2="5648.7"/>
			<line class="st70" x1="6117.3" y1="5677.4" x2="6127.1" y2="5650.4"/>
			<line class="st70" x1="6117.3" y1="5677.4" x2="6135.7" y2="5655.4"/>
			<line class="st70" x1="6117.5" y1="5677.4" x2="6092.6" y2="5663"/>
			<line class="st70" x1="6117.3" y1="5677.4" x2="6098.8" y2="5655.4"/>
			<line class="st70" x1="6117.3" y1="5677.4" x2="6107.4" y2="5650.4"/>
			<path class="st71" d="M6117.3,5684.3c0,0.8,0,1.7,0,2.5c0.9,0,1.7,0,2.5,0c12.4,0,22.5-10.1,22.5-22.5c0-0.8,0-1.6-0.1-2.4
				c-0.8-0.1-1.6-0.1-2.4-0.1C6127.3,5661.8,6117.3,5671.9,6117.3,5684.3z"/>
			<path class="st71" d="M6117.3,5684.3c0,0.8,0,1.5,0,2.5c-0.9,0-1.7,0-2.5,0c-12.4,0-22.5-10.1-22.5-22.5c0-0.8,0-1.6,0.1-2.4
				c0.8-0.1,1.6-0.1,2.4-0.1C6107.2,5661.8,6117.3,5671.9,6117.3,5684.3z"/>
			<circle class="st71" cx="6117.3" cy="5648.7" r="2.1"/>
			<circle class="st71" cx="6127.1" cy="5650.4" r="2.1"/>
			<circle class="st71" cx="6107.4" cy="5650.4" r="2.1"/>
			<circle class="st71" cx="6098.8" cy="5655.4" r="2.1"/>
			<circle class="st71" cx="6135.7" cy="5655.4" r="2.1"/>
		</g>
		<g>
			<rect x="5638.2" y="5577.3" class="st71" width="77.6" height="121.7"/>
			<circle class="st70" cx="5676.8" cy="5611.8" r="22.6"/>
			<circle class="st70" cx="5676.8" cy="5611.8" r="7.6"/>
			<circle class="st70" cx="5676.8" cy="5664.8" r="22.6"/>
			<circle class="st70" cx="5676.8" cy="5664.8" r="7.6"/>
			<polyline class="st70" points="5641.5,5593.2 5641.5,5580.6 5654,5580.6 			"/>
			<polyline class="st70" points="5699.9,5580.6 5712.5,5580.6 5712.5,5593.2 			"/>
			<polyline class="st70" points="5641.5,5683.4 5641.5,5695.9 5654,5695.9 			"/>
			<polyline class="st70" points="5699.9,5695.9 5712.5,5695.9 5712.5,5683.4 			"/>
		</g>
		<polygon id="play" class="st71" points="5201,5654.4 5210,5659.6 5201,5664.9 		"/>
		<g>
			<line class="st70" x1="5601.4" y1="5698.3" x2="5601.4" y2="5647.9"/>
			<line class="st70" x1="5601.4" y1="5676.7" x2="5611.2" y2="5649.6"/>
			<line class="st70" x1="5601.4" y1="5676.7" x2="5619.9" y2="5654.6"/>
			<line class="st70" x1="5601.6" y1="5676.7" x2="5576.7" y2="5662.3"/>
			<line class="st70" x1="5601.4" y1="5676.7" x2="5582.9" y2="5654.6"/>
			<line class="st70" x1="5601.4" y1="5676.7" x2="5591.6" y2="5649.6"/>
			<path class="st71" d="M5601.4,5683.5c0,0.8,0,1.7,0,2.5c0.9,0,1.7,0,2.5,0c12.4,0,22.5-10.1,22.5-22.5c0-0.8,0-1.6-0.1-2.4
				c-0.8-0.1-1.6-0.1-2.4-0.1C5611.5,5661,5601.4,5671.1,5601.4,5683.5z"/>
			<path class="st71" d="M5601.4,5683.5c0,0.8,0,1.5,0,2.5c-0.9,0-1.7,0-2.5,0c-12.4,0-22.5-10.1-22.5-22.5c0-0.8,0-1.6,0.1-2.4
				c0.8-0.1,1.6-0.1,2.4-0.1C5591.3,5661,5601.4,5671.1,5601.4,5683.5z"/>
			<circle class="st71" cx="5601.4" cy="5647.9" r="2.1"/>
			<circle class="st71" cx="5611.2" cy="5649.6" r="2.1"/>
			<circle class="st71" cx="5591.6" cy="5649.6" r="2.1"/>
			<circle class="st71" cx="5582.9" cy="5654.6" r="2.1"/>
			<circle class="st71" cx="5619.9" cy="5654.6" r="2.1"/>
		</g>
		<path id="drip1" class="st72" d="M5331.7,5712.3c-0.1,0-3.4,5.3-3.4,7.1c0,1.9,1.5,3.4,3.4,3.4s3.4-1.5,3.4-3.4
			C5335.1,5717.6,5331.8,5712.3,5331.7,5712.3z"/>
		<path id="drip3" class="st72" d="M5331.7,5751.6c-0.1,0-3.4,5.3-3.4,7.1c0,1.9,1.5,3.4,3.4,3.4s3.4-1.5,3.4-3.4
			C5335.1,5756.9,5331.8,5751.6,5331.7,5751.6z"/>
		<g>
			<path d="M5290.4,5641.4h3.5l3.6,5.1v-5.1h4.1v13.2h-3.5l-3.6-5.1v5.1h-4.1V5641.4z M5292.7,5653v-9.1l6.5,9.1h0.5v-10h-0.5v9.1
				l-6.5-9.1h-0.5v10H5292.7z"/>
			<path d="M5304.3,5648c0-0.9,0.2-1.8,0.5-2.7c0.4-0.8,0.9-1.6,1.5-2.2s1.4-1.1,2.2-1.5s1.7-0.5,2.7-0.5s1.8,0.2,2.7,0.5
				c0.8,0.4,1.6,0.9,2.2,1.5s1.1,1.4,1.5,2.2c0.4,0.8,0.5,1.7,0.5,2.7s-0.2,1.8-0.5,2.7c-0.4,0.8-0.9,1.6-1.5,2.2s-1.4,1.1-2.2,1.5
				c-0.8,0.4-1.7,0.5-2.7,0.5s-1.8-0.2-2.7-0.5c-0.8-0.4-1.6-0.9-2.2-1.5s-1.1-1.4-1.5-2.2C5304.5,5649.8,5304.3,5648.9,5304.3,5648
				z M5306.2,5648c0,0.7,0.1,1.4,0.4,2c0.3,0.6,0.6,1.1,1.1,1.6c0.5,0.5,1,0.8,1.6,1.1c0.6,0.3,1.3,0.4,2,0.4s1.4-0.1,2-0.4
				c0.6-0.3,1.1-0.6,1.6-1.1s0.8-1,1.1-1.6c0.3-0.6,0.4-1.3,0.4-2c0-0.7-0.1-1.4-0.4-2c-0.3-0.6-0.6-1.1-1.1-1.6s-1-0.8-1.6-1.1
				c-0.6-0.3-1.3-0.4-2-0.4s-1.4,0.1-2,0.4c-0.6,0.3-1.1,0.6-1.6,1.1c-0.5,0.5-0.8,1-1.1,1.6
				C5306.3,5646.6,5306.2,5647.3,5306.2,5648z M5311.2,5652.5c-0.6,0-1.2-0.1-1.8-0.4c-0.5-0.2-1-0.6-1.4-1c-0.4-0.4-0.7-0.9-1-1.4
				c-0.2-0.5-0.4-1.1-0.4-1.8c0-0.6,0.1-1.2,0.4-1.8c0.2-0.5,0.6-1,1-1.4c0.4-0.4,0.9-0.7,1.4-1c0.5-0.2,1.1-0.4,1.8-0.4
				c0.6,0,1.2,0.1,1.8,0.4c0.5,0.2,1,0.6,1.4,1c0.4,0.4,0.7,0.9,1,1.4c0.2,0.5,0.4,1.1,0.4,1.8c0,0.6-0.1,1.2-0.4,1.8
				c-0.2,0.5-0.6,1-1,1.4c-0.4,0.4-0.9,0.7-1.4,1C5312.5,5652.4,5311.9,5652.5,5311.2,5652.5z M5308.5,5648c0,0.4,0.1,0.7,0.2,1.1
				c0.1,0.3,0.3,0.6,0.6,0.9c0.2,0.2,0.5,0.4,0.9,0.6c0.3,0.1,0.7,0.2,1.1,0.2c0.4,0,0.7-0.1,1.1-0.2c0.3-0.1,0.6-0.3,0.9-0.6
				c0.2-0.2,0.4-0.5,0.6-0.9c0.1-0.3,0.2-0.7,0.2-1.1c0-0.4-0.1-0.7-0.2-1.1c-0.1-0.3-0.3-0.6-0.6-0.9s-0.5-0.4-0.9-0.6
				c-0.3-0.1-0.7-0.2-1.1-0.2c-0.4,0-0.7,0.1-1.1,0.2c-0.3,0.1-0.6,0.3-0.9,0.6s-0.4,0.5-0.6,0.9
				C5308.5,5647.3,5308.5,5647.6,5308.5,5648z"/>
			<path d="M5320.9,5641.4h3.5l3.6,5.1v-5.1h4.1v13.2h-3.5l-3.6-5.1v5.1h-4.1V5641.4z M5323.2,5653v-9.1l6.5,9.1h0.5v-10h-0.5v9.1
				l-6.5-9.1h-0.5v10H5323.2z"/>
			<path d="M5290.4,5658.8h4.2v4.5h2.3v-4.5h4.2v13.2h-4.2v-4.9h-2.3v4.9h-4.2V5658.8z M5292.9,5670.4v-5h5.8v5h0.5v-10h-0.5v4.5
				h-5.8v-4.5h-0.5v10H5292.9z"/>
			<path d="M5308.8,5665.7c0.3-0.5,0.5-0.9,0.5-1.2c0.1-0.3,0.1-0.5,0.1-0.8c0-0.9-0.5-1.3-1.6-1.3c-0.1,0-0.2,0-0.3,0s-0.2,0-0.3,0
				c-0.1,0-0.2,0-0.3,0v-3.7c0.2,0,0.3-0.1,0.5-0.1c0.1,0,0.3,0,0.4-0.1c0.1,0,0.3,0,0.4,0c0.2,0,0.3,0,0.5,0c0.6,0,1.3,0.1,1.9,0.2
				c0.6,0.1,1.2,0.4,1.6,0.7c0.5,0.3,0.9,0.7,1.2,1.3c0.3,0.5,0.5,1.2,0.5,1.9c0,0.4,0,0.7-0.1,1.1c-0.1,0.3-0.2,0.7-0.4,1.1
				c-0.2,0.4-0.4,0.9-0.6,1.4c-0.3,0.5-0.6,1.1-0.9,1.8l-0.3,0.5h2.5l-1.1,3.5h-7.7L5308.8,5665.7z M5312,5670.4l0.2-0.5h-3.2
				l2.2-4.2c0.2-0.5,0.4-0.9,0.6-1.3c0.2-0.4,0.2-0.9,0.2-1.3c0-0.9-0.3-1.5-0.8-2c-0.6-0.4-1.3-0.7-2.2-0.7c0,0-0.1,0-0.1,0
				c0,0-0.1,0-0.1,0h-0.1v0.5h0.1c0,0,0.1,0,0.1,0c0,0,0.1,0,0.1,0c0.8,0,1.4,0.2,1.8,0.6c0.5,0.4,0.7,0.9,0.7,1.6
				c0,0.4-0.1,0.8-0.2,1.2c-0.1,0.4-0.3,0.8-0.6,1.3l-2.6,4.9H5312z"/>
			<path d="M5318.5,5665.4c0-0.9,0.2-1.8,0.5-2.7c0.4-0.8,0.9-1.6,1.5-2.2s1.4-1.1,2.2-1.5c0.8-0.4,1.7-0.5,2.7-0.5s1.8,0.2,2.7,0.5
				s1.6,0.9,2.2,1.5s1.1,1.4,1.5,2.2c0.4,0.8,0.5,1.7,0.5,2.7s-0.2,1.8-0.5,2.7c-0.4,0.8-0.9,1.6-1.5,2.2s-1.4,1.1-2.2,1.5
				c-0.8,0.4-1.7,0.5-2.7,0.5s-1.8-0.2-2.7-0.5c-0.8-0.4-1.6-0.9-2.2-1.5s-1.1-1.4-1.5-2.2
				C5318.7,5667.3,5318.5,5666.4,5318.5,5665.4z M5320.4,5665.4c0,0.7,0.1,1.4,0.4,2c0.3,0.6,0.6,1.1,1.1,1.6s1,0.8,1.6,1.1
				c0.6,0.3,1.3,0.4,2,0.4c0.7,0,1.4-0.1,2-0.4c0.6-0.3,1.1-0.6,1.6-1.1s0.8-1,1.1-1.6c0.3-0.6,0.4-1.3,0.4-2c0-0.7-0.1-1.4-0.4-2
				c-0.3-0.6-0.6-1.1-1.1-1.6s-1-0.8-1.6-1.1c-0.6-0.3-1.3-0.4-2-0.4c-0.7,0-1.4,0.1-2,0.4c-0.6,0.3-1.1,0.6-1.6,1.1s-0.8,1-1.1,1.6
				C5320.5,5664.1,5320.4,5664.7,5320.4,5665.4z M5325.4,5670c-0.6,0-1.2-0.1-1.8-0.4c-0.5-0.2-1-0.6-1.4-1c-0.4-0.4-0.7-0.9-1-1.4
				c-0.2-0.5-0.4-1.1-0.4-1.8c0-0.6,0.1-1.2,0.4-1.8c0.2-0.5,0.6-1,1-1.4c0.4-0.4,0.9-0.7,1.4-1c0.5-0.2,1.1-0.4,1.8-0.4
				c0.6,0,1.2,0.1,1.8,0.4c0.5,0.2,1,0.6,1.4,1c0.4,0.4,0.7,0.9,1,1.4c0.2,0.5,0.4,1.1,0.4,1.8c0,0.6-0.1,1.2-0.4,1.8
				c-0.2,0.5-0.6,1-1,1.4c-0.4,0.4-0.9,0.7-1.4,1C5326.7,5669.8,5326.1,5670,5325.4,5670z M5322.7,5665.4c0,0.4,0.1,0.7,0.2,1.1
				c0.1,0.3,0.3,0.6,0.6,0.9c0.2,0.2,0.5,0.4,0.9,0.6s0.7,0.2,1.1,0.2c0.4,0,0.7-0.1,1.1-0.2s0.6-0.3,0.9-0.6
				c0.2-0.2,0.4-0.5,0.6-0.9c0.1-0.3,0.2-0.7,0.2-1.1c0-0.4-0.1-0.7-0.2-1.1c-0.1-0.3-0.3-0.6-0.6-0.9s-0.5-0.4-0.9-0.6
				s-0.7-0.2-1.1-0.2c-0.4,0-0.7,0.1-1.1,0.2s-0.6,0.3-0.9,0.6s-0.4,0.5-0.6,0.9C5322.8,5664.7,5322.7,5665,5322.7,5665.4z"/>
		</g>
		<g>
			<path class="st71" d="M5979.6,5723.3c0-0.8,0-1.7,0-2.5c-0.9,0-1.7,0-2.5,0c-12.4,0-22.5,10.1-22.5,22.5c0,0.8,0,1.6,0.1,2.4
				c0.8,0.1,1.6,0.1,2.4,0.1C5969.5,5745.8,5979.6,5735.7,5979.6,5723.3z"/>
			<path class="st71" d="M6011,5706.4c0.3-0.8,0.6-1.6,0.8-2.4c-0.8-0.3-1.6-0.6-2.4-0.8c-11.7-4.2-24.6,1.9-28.8,13.6
				c-0.3,0.8-0.5,1.5-0.7,2.3c0.7,0.3,1.4,0.7,2.2,0.9C5993.9,5724.2,6006.8,5718.1,6011,5706.4z"/>
			<path class="st71" d="M6002.1,5745.8c0.8,0,1.7,0,2.5,0c0-0.9,0-1.7,0-2.5c0-12.4-10.1-22.5-22.5-22.5c-0.8,0-1.6,0-2.4,0.1
				c-0.1,0.8-0.1,1.6-0.1,2.4C5979.6,5735.7,5989.7,5745.8,6002.1,5745.8z"/>
			<path class="st70" d="M5979.6,5723.6c0-28.7,23.3-51.9,51.9-51.9"/>
			<line class="st68" x1="5980" y1="5719.1" x2="6001.5" y2="5708.9"/>
			<polyline class="st69" points="5961.9,5738.5 5979.6,5720.8 5984.1,5725.9 5986.6,5725.9 5986.6,5730.4 5991.3,5730.4 
				5991.3,5735.1 5996.4,5735.1 5996.4,5737.4 			"/>
		</g>
		<circle class="st70" cx="5979.2" cy="5745.8" r="3.3"/>
		<circle class="st70" cx="5988.6" cy="5755.2" r="3.3"/>
		<circle class="st70" cx="5979.2" cy="5763" r="3.3"/>
		<g>
			<g>
				<path class="st71" d="M5939.8,5696c0.6-0.6,1.2-1.2,1.8-1.8c-0.6-0.6-1.2-1.2-1.8-1.8c-8.8-8.8-23-8.8-31.8,0
					c-0.6,0.6-1.1,1.2-1.6,1.8c0.5,0.6,1,1.2,1.6,1.8C5916.8,5704.8,5931.1,5704.8,5939.8,5696z"/>
				<path class="st71" d="M5973.9,5706.3c0.7-0.3,1.5-0.7,2.3-1.1c-0.4-0.8-0.7-1.5-1.1-2.3c-5.3-11.2-18.7-16-30-10.7
					c-0.7,0.3-1.4,0.7-2.1,1.1c0.3,0.7,0.6,1.5,0.9,2.2C5949.3,5706.8,5962.7,5711.6,5973.9,5706.3z"/>
				<path class="st71" d="M5939.8,5727.8c0.6,0.6,1.2,1.2,1.8,1.8c0.6-0.6,1.2-1.2,1.8-1.8c8.8-8.8,8.8-23,0-31.8
					c-0.6-0.6-1.2-1.1-1.8-1.6c-0.6,0.5-1.2,1-1.8,1.6C5931.1,5704.8,5931.1,5719.1,5939.8,5727.8z"/>
				<path class="st70" d="M5939.6,5696.3c15.5-15.5,38.5-19.2,57.5-10.9"/>
				<line class="st68" x1="5943.1" y1="5693.4" x2="5965.5" y2="5701.4"/>
				<polyline class="st69" points="5916.6,5694.2 5941.6,5694.2 5941.2,5701.1 5942.9,5702.8 5939.8,5706 5943.1,5709.3 
					5939.8,5712.6 5943.4,5716.3 5941.8,5717.9 				"/>
			</g>
			<circle class="st70" cx="5923.6" cy="5711.6" r="3.3"/>
			<path class="st70" d="M5922.3,5730.8c-1.3,1.3-3.4,1.3-4.7,0s-1.3-3.4,0-4.7c4-4,0.7-4,4.7,0
				C5923.6,5727.3,5923.6,5729.5,5922.3,5730.8z"/>
			<circle class="st70" cx="5933.2" cy="5734" r="3.3"/>
		</g>
		<g>
			<path d="M6044,5509.8h5.7l2,5.9l2-5.9h3.7l2,5.9l2-5.9h5.7l-5.6,16.9h-4.2l-1.7-5.1l-1.7,5.1h-4.2L6044,5509.8z M6052.1,5524.7
				l3.4-10.6l3.4,10.6h0.6l4.2-12.9h-0.7l-3.9,11.7l-3.7-11.7l-3.7,11.7l-3.9-11.7h-0.7l4.2,12.9H6052.1z"/>
			<path d="M6068.3,5509.8h6.6c0.8,0,1.6,0.1,2.3,0.3c0.7,0.2,1.3,0.5,1.8,0.9c0.5,0.4,0.9,0.9,1.2,1.4c0.3,0.6,0.4,1.2,0.4,2
				c0,0.5-0.1,1-0.2,1.4s-0.3,0.7-0.4,1c-0.2,0.3-0.4,0.6-0.6,0.8c0.4,0.2,0.7,0.5,1,0.9c0.3,0.3,0.5,0.7,0.7,1.2
				c0.2,0.5,0.3,1.1,0.3,1.8c0,0.8-0.1,1.5-0.4,2.2c-0.3,0.7-0.7,1.2-1.2,1.7c-0.5,0.5-1.2,0.8-2,1.1c-0.8,0.2-1.6,0.4-2.6,0.4h-6.9
				V5509.8z M6074.5,5524.7c1.5,0,2.6-0.3,3.3-1s1.1-1.5,1.1-2.6c0-0.7-0.1-1.2-0.4-1.7c-0.3-0.4-0.6-0.7-1-1
				c-0.4-0.3-0.9-0.5-1.4-0.6c0.4-0.1,0.8-0.3,1.1-0.6c0.3-0.2,0.5-0.5,0.8-0.9c0.2-0.4,0.3-0.9,0.3-1.5c0-1.1-0.3-1.9-1-2.4
				s-1.6-0.8-2.8-0.8h-3.7v12.9H6074.5z M6071.5,5517.7v-5.2h3c1.1,0,1.9,0.2,2.4,0.7c0.5,0.5,0.7,1.1,0.7,1.9
				c0,0.8-0.2,1.4-0.7,1.9c-0.5,0.5-1.3,0.7-2.4,0.7H6071.5z M6071.5,5524.1v-5.8h3c0.5,0,1,0.1,1.5,0.2c0.4,0.1,0.8,0.3,1.2,0.5
				c0.3,0.2,0.6,0.5,0.8,0.9c0.2,0.4,0.3,0.8,0.3,1.3c0,1-0.3,1.8-1,2.2c-0.7,0.5-1.6,0.7-2.7,0.7H6071.5z M6075.4,5515
				c0-0.8-0.4-1.2-1.3-1.2h-0.6v2.3h0.6C6075,5516.1,6075.4,5515.8,6075.4,5515z M6074.2,5522.8c1.3,0,1.9-0.5,1.9-1.5
				s-0.6-1.5-1.9-1.5h-0.6v2.9H6074.2z"/>
		</g>
		<circle cx="6063.2" cy="5492" r="1.8"/>
		<path id="drip2" class="st70" d="M5323.7,5741.4c-1.3,1.3-3.4,1.3-4.7,0s-1.3-3.4,0-4.7c4-4,0.7-4,4.7,0
			C5325.1,5738,5325.1,5740.1,5323.7,5741.4z"/>
		<polygon id="bolt" class="st71" points="5572.1,5713.3 5534.7,5736.1 5546.7,5738.8 5529,5750.8 5540.8,5753.8 5521.3,5771.6 
			5557,5751.7 5544.6,5748.6 5562.8,5737 5550.6,5733.9 		"/>
		<g id="disco_x5F_ball">
			<ellipse class="st70" cx="5168.6" cy="5407.8" rx="27.7" ry="28"/>
			<line class="st70" x1="5168.6" y1="5375" x2="5168.6" y2="5435.8"/>
			<line class="st70" x1="5150" y1="5387.1" x2="5150" y2="5428.5"/>
			<line class="st70" x1="5159.3" y1="5381.5" x2="5159.3" y2="5434.1"/>
			<line class="st70" x1="5177.5" y1="5381.3" x2="5177.5" y2="5434.3"/>
			<line class="st70" x1="5186.8" y1="5386.7" x2="5186.8" y2="5428.9"/>
			<line class="st70" x1="5196.7" y1="5408" x2="5140.2" y2="5408"/>
			<line class="st70" x1="5189.3" y1="5389.2" x2="5147.9" y2="5389.2"/>
			<line class="st70" x1="5194.4" y1="5398.6" x2="5142.4" y2="5398.6"/>
			<line class="st70" x1="5194.4" y1="5417" x2="5142.5" y2="5417"/>
			<line class="st70" x1="5189.2" y1="5426.4" x2="5148.4" y2="5426.4"/>
			<line class="st70" x1="5140.9" y1="5407.8" x2="5196" y2="5407.8"/>
			<ellipse class="st70" cx="5168.6" cy="5370.8" rx="4.2" ry="4.3"/>
		</g>
		<g id="music-note2">
			<circle class="st70" cx="5304.2" cy="5483" r="6.9"/>
			<circle class="st70" cx="5331.9" cy="5483" r="6.9"/>
			<polyline class="st70" points="5338.9,5483 5338.9,5451.1 5338.9,5451.1 5335.4,5447.6 5331.9,5451.1 5328.4,5447.6 
				5324.9,5451.1 5321.4,5447.6 5318,5451 5314.6,5447.6 5311.1,5451.1 5311.1,5451.1 5311.1,5483 			"/>
		</g>
		<g id="music-note4">
			<circle class="st70" cx="5459.6" cy="5446.6" r="6.9"/>
			<circle class="st70" cx="5487.3" cy="5446.6" r="6.9"/>
			<polyline class="st70" points="5494.3,5446.6 5494.3,5414.7 5494.3,5414.7 5490.8,5411.2 5487.3,5414.7 5483.8,5411.2 
				5480.3,5414.7 5476.8,5411.2 5473.4,5414.6 5470,5411.2 5466.5,5414.7 5466.5,5414.7 5466.5,5446.6 			"/>
		</g>
		<g>
			<circle class="st70" cx="5248" cy="5566.9" r="6.9"/>
			<polyline class="st70" points="5268.7,5534.9 5265.3,5531.4 5261.8,5534.9 5258.4,5531.5 5255,5534.9 5255,5534.9 5255,5566.9 
							"/>
		</g>
		<g id="music-note3">
			<circle class="st70" cx="5399.4" cy="5524.1" r="6.9"/>
			<polyline class="st70" points="5420.1,5492.1 5416.7,5488.6 5413.2,5492 5409.8,5488.6 5406.4,5492.1 5406.4,5492.1 
				5406.4,5524.1 			"/>
		</g>
		<g id="sun">
			<path class="st70" d="M5155.1,5402.8c1.8-5.6,7-9.6,13.2-9.6c7.6,0,13.8,6.2,13.8,13.8c0,2.2-0.5,4.2-1.4,6"/>
			<line class="st70" x1="5194.7" y1="5407.2" x2="5211.8" y2="5407.2"/>
			<line class="st70" x1="5168.4" y1="5380.8" x2="5168.4" y2="5363.7"/>
			<line class="st70" x1="5187.6" y1="5388" x2="5199.7" y2="5375.9"/>
			<line class="st70" x1="5137.1" y1="5375.9" x2="5149.2" y2="5388"/>
			<g>
				<path class="st70" d="M5181.4,5411.5c-1.8,5.6-7,9.6-13.2,9.6c-7.6,0-13.8-6.2-13.8-13.8c0-2.2,0.5-4.2,1.4-6"/>
				<line class="st70" x1="5141.9" y1="5407.1" x2="5124.8" y2="5407.1"/>
				<line class="st70" x1="5168.2" y1="5433.5" x2="5168.2" y2="5450.6"/>
				<line class="st70" x1="5149" y1="5426.3" x2="5136.9" y2="5438.4"/>
				<line class="st70" x1="5199.5" y1="5438.4" x2="5187.4" y2="5426.3"/>
			</g>
		</g>
		<path id="cloud" class="st71" d="M5179.9,5420.3c-2.5-8.1-10.6-14.6-22.3-13.2c-15.5-12.8-38.6-3.9-42,16.1
			c-17.4,10.5-8.4,32.7,9.2,32.7h57.3c10.6,0,19.5-8.2,19.5-17.9C5201.6,5428.3,5192,5419.2,5179.9,5420.3z"/>
			<animate 
           xlink:href="#cloud-move"
           attributeName="cx"
           from="50"
           to="450" 
           dur="1s"
           begin="click"
           fill="freeze" />

		<g id="dumstick">
			<path class="st70" d="M5503.1,5670.8l11.4,11.4c-1.9,1.3-2.1,4-0.5,5.6c2.7,2.7,7.3-0.1,6.1-3.8c3.7,1.3,6.5-3.3,3.8-6.1
				c-1.6-1.6-4.4-1.4-5.7,0.6l-11.4-11.4"/>
			<path class="st71" d="M5509.8,5676h-7.6c0,0-6.1-0.1-9-2.8c-5.5-5.2-18-16-16-25.7c1.5-7.3,7.4-11.6,16-10c5.4,1,13.3,8.7,18,16
				c3.2,4.8,2.6,11.8,2.6,11.8l-1,7.8L5509.8,5676z"/>
		</g>
		<g id="pop">
			<line class="st70" x1="5509.6" y1="5662.7" x2="5515.7" y2="5662.7"/>
			<line class="st70" x1="5500.2" y1="5672.9" x2="5500.2" y2="5647.2"/>
			<line class="st70" x1="5491.9" y1="5671" x2="5511.1" y2="5651.8"/>
			<line class="st70" x1="5489.3" y1="5651.7" x2="5507.6" y2="5670.1"/>
			<line class="st70" x1="5512.6" y1="5662.6" x2="5484.7" y2="5662.6"/>
			<line class="st70" x1="5500.2" y1="5672" x2="5500.2" y2="5678.1"/>
			<line class="st70" x1="5493.6" y1="5669.3" x2="5489.3" y2="5673.6"/>
			<line class="st70" x1="5511.1" y1="5673.6" x2="5506.8" y2="5669.3"/>
		</g>
		<circle id="bass1" class="st70" cx="5676.8" cy="5611.8" r="19.3"/>
		<circle id="bass2" class="st70" cx="5676.8" cy="5664.8" r="19.3"/>
		<circle id="stereo1" class="st70" cx="5165.4" cy="5674.8" r="13.4"/>
		<circle class="st70" cx="5243.4" cy="5674.8" r="13.4"/>
	</g>
</g>
</svg>
