<?xml version="1.0" encoding="utf-8"?>
<!-- Generator: Adobe Illustrator 19.1.0, SVG Export Plug-In . SVG Version: 6.00 Build 0)  -->
<svg version="1.1" id="Layer_1" xmlns="http://www.w3.org/2000/svg" xmlns:xlink="http://www.w3.org/1999/xlink" x="0px" y="0px"
	 viewBox="-816.8 158.4 3554.5 525.5" style="enable-background:new -816.8 158.4 3554.5 525.5;" xml:space="preserve">
<style type="text/css">
	.st0{fill:none;stroke:#000000;stroke-width:2;stroke-linecap:round;stroke-linejoin:round;stroke-miterlimit:10;}
	.st1{fill:#FFFFFF;stroke:#000000;stroke-width:2;stroke-linecap:round;stroke-linejoin:round;stroke-miterlimit:10;}
	.st2{fill:none;stroke:#000000;stroke-width:2;stroke-linejoin:round;stroke-miterlimit:10;}
	.st3{fill:#FFFFFF;stroke:#000000;stroke-width:2;stroke-linejoin:round;stroke-miterlimit:10;}
	.st4{fill:none;stroke:#000000;stroke-width:2;stroke-miterlimit:10;}
	.st5{fill:#FFFFFF;}
</style>
<g id="Layer_2">
</g>
<g id="Layer_1_1_">
	<g>
		<g>
			<line class="st0" x1="702.3" y1="585.6" x2="702.3" y2="515.3"/>
			<line class="st0" x1="706.7" y1="515.3" x2="706.7" y2="585.6"/>
			<line class="st0" x1="702.3" y1="515.3" x2="665.5" y2="463.8"/>
			<line class="st0" x1="706.7" y1="515.3" x2="743.5" y2="463.8"/>
			<path class="st1" d="M712,585.1c0-4.1-3.3-7.4-7.4-7.4s-7.4,3.3-7.4,7.4"/>
			<line class="st0" x1="671.5" y1="585.6" x2="737.5" y2="585.6"/>
			<line class="st0" x1="702.3" y1="515.3" x2="706.8" y2="515.3"/>
			<path class="st0" d="M674.5,476.2l2.6,2.6c1.4,1.4,3.6,1.4,4.9,0l0.1-0.1c1.4-1.4,3.6-1.4,4.9,0l0.1,0.1c1.4,1.4,3.6,1.4,4.9,0
				l0,0c1.4-1.4,3.6-1.4,4.9,0l0.1,0.1c1.4,1.4,3.6,1.4,4.9,0l0.2-0.2c1.4-1.4,3.6-1.4,4.9,0l0.1,0.1c1.4,1.4,3.6,1.4,4.9,0l0,0
				c1.4-1.4,3.6-1.4,4.9,0l0,0c1.4,1.4,3.6,1.4,4.9,0l0.1-0.1c1.4-1.4,3.6-1.4,4.9,0l0.2,0.2c1.4,1.4,3.6,1.4,4.9,0l2.6-2.6"/>
		</g>
		<g>
			<line class="st0" x1="1440.8" y1="336.7" x2="1449.9" y2="352.3"/>
			<g>
				<rect x="1436.2" y="411.5" class="st2" width="19.1" height="7.9"/>
				<line class="st0" x1="1438.9" y1="424.2" x2="1400.7" y2="587"/>
				<line class="st0" x1="1444.1" y1="424.2" x2="1425.7" y2="502.1"/>
				<line class="st0" x1="1454.2" y1="424.2" x2="1492.7" y2="587"/>
				<line class="st0" x1="1449.2" y1="424.2" x2="1467.6" y2="502.1"/>
				
					<rect x="1415.2" y="369" transform="matrix(0.862 -0.5069 0.5069 0.862 4.8204 782.6765)" class="st2" width="49.4" height="27"/>
				<line class="st0" x1="1470.8" y1="387.9" x2="1479.9" y2="403.5"/>
				<circle class="st0" cx="1445.8" cy="404.4" r="2.7"/>
			</g>
		</g>
		<g>
			<rect x="902" y="363.5" class="st2" width="30.2" height="30.2"/>
			<circle class="st2" cx="917" cy="378.6" r="10.6"/>
			<polygon class="st2" points="921.5,348.4 912.5,348.4 902,359 932.2,359 			"/>
			<polygon class="st2" points="912.5,408.8 921.5,408.8 932.2,398.2 902,398.2 			"/>
			<polygon class="st2" points="886.8,374.1 886.8,383.1 897.5,393.7 897.5,363.5 			"/>
			<polygon class="st2" points="947.2,383.1 947.2,374.1 936.7,363.5 936.7,393.7 			"/>
			<rect x="907.7" y="414.1" class="st2" width="18.8" height="7.8"/>
			<line class="st0" x1="910.3" y1="426.7" x2="872.5" y2="587.5"/>
			<line class="st0" x1="915.2" y1="426.7" x2="897.2" y2="503.6"/>
			<line class="st0" x1="925.3" y1="426.7" x2="963.2" y2="587.5"/>
			<line class="st0" x1="920.3" y1="426.7" x2="938.5" y2="503.6"/>
		</g>
		<g>
			<rect x="1323.3" y="389.4" class="st3" width="46.2" height="31.6"/>
			<polyline class="st2" points="1318.7,420.8 1318.7,439.5 1304.1,587.4 			"/>
			<path class="st2" d="M1369.6,421v19.2c0,0.1,0,0.3,0,0.4c-0.2,12.6-10.5,22.7-23.1,22.7s-22.9-10.1-23.1-22.7c0-0.1,0-0.3,0-0.4
				V421H1369.6z"/>
			<polyline class="st2" points="1374.4,420.8 1374.4,421 1374.4,439.5 1378.2,476.5 1389.1,587.4 			"/>
			<polyline class="st2" points="1346.4,587.4 1346.4,532.1 1346.4,476.5 1346.4,463.3 			"/>
			<line class="st2" x1="1346.4" y1="464.4" x2="1346.4" y2="421.3"/>
			<polyline class="st2" points="1323.3,389.4 1346.4,366.2 1369.6,389.4 			"/>
			<line class="st2" x1="1314.8" y1="476.5" x2="1378.3" y2="476.5"/>
			<line class="st2" x1="1309.7" y1="532.1" x2="1383.4" y2="532.1"/>
			<polyline class="st2" points="1314.8,421 1318.7,421 1323.3,421 			"/>
			<polyline class="st2" points="1369.6,421 1374.4,421 1378.3,421 			"/>
		</g>
		<g>
			<polyline class="st2" points="1107.8,405.8 1156.4,357.2 1205.1,405.8 			"/>
			<polyline class="st2" points="1110.1,407.9 1156.4,361.5 1202.9,407.9 			"/>
			<line class="st2" x1="1113.6" y1="404.7" x2="1113.6" y2="433.1"/>
			<line class="st2" x1="1199.1" y1="404.5" x2="1199.1" y2="432.8"/>
			<polygon class="st2" points="1297.7,514.3 1297.7,587.4 1015.2,587.4 1015.2,514.2 1096.8,432.8 1216.2,432.8 			"/>
			<g>
				<rect x="1190.7" y="519.1" class="st2" width="37.9" height="68.3"/>
				<line class="st2" x1="1190.7" y1="519.1" x2="1228.4" y2="587.4"/>
				<line class="st2" x1="1228.4" y1="519.1" x2="1190.7" y2="587.4"/>
			</g>
			<g>
				<rect x="1156.4" y="457.8" class="st2" width="20.2" height="36.5"/>
				<line class="st2" x1="1156.4" y1="457.8" x2="1176.7" y2="494.3"/>
				<line class="st2" x1="1176.7" y1="457.8" x2="1156.4" y2="494.3"/>
			</g>
			<g>
				<rect x="1136.2" y="457.8" class="st2" width="20.2" height="36.5"/>
				<line class="st2" x1="1136.2" y1="457.8" x2="1156.4" y2="494.3"/>
				<line class="st2" x1="1156.4" y1="457.8" x2="1136.2" y2="494.3"/>
			</g>
			<g>
				<rect x="1084.4" y="519.1" class="st2" width="37.9" height="68.3"/>
				<line class="st2" x1="1084.4" y1="519.1" x2="1122.2" y2="587.4"/>
				<line class="st2" x1="1122.2" y1="519.1" x2="1084.4" y2="587.4"/>
			</g>
			<rect x="1122.2" y="519.1" class="st2" width="68.3" height="68.3"/>
			<rect x="1046.8" y="519.1" class="st2" width="19.2" height="29.5"/>
			<rect x="1247.7" y="519.1" class="st2" width="19.2" height="29.5"/>
			<circle class="st2" cx="1156.4" cy="403" r="7.1"/>
			<line class="st2" x1="1056.3" y1="519.1" x2="1056.3" y2="548.5"/>
			<line class="st2" x1="1257.2" y1="519.1" x2="1257.2" y2="548.5"/>
			<polygon class="st2" points="1297.7,519.1 1297.7,587.4 1015.2,587.4 1015.2,519 1098.2,436 1214.6,436 			"/>
		</g>
		<path class="st3" d="M319.2,587.4H1559l2-125.7l-7.7-0.1c-43.3,0-71,0.2-127.6,34.2c-105,63-139.2,91.8-244.3,91.8"/>
		<g>
			<rect x="426.5" y="510.9" class="st2" width="123.5" height="76.5"/>
			<circle class="st2" cx="526.8" cy="563.2" r="17.5"/>
			<circle class="st2" cx="526.8" cy="563.2" r="8.9"/>
			<circle class="st2" cx="448.8" cy="563.2" r="17.5"/>
			<circle class="st2" cx="448.8" cy="563.2" r="8.9"/>
			<circle class="st2" cx="482.6" cy="564.2" r="3.6"/>
			<circle class="st2" cx="493.4" cy="564.2" r="3.6"/>
			<circle class="st2" cx="540.5" cy="521.6" r="3.7"/>
			<rect x="432.2" y="516.9" class="st2" width="100.6" height="8.4"/>
			<rect x="471.2" y="537.8" class="st2" width="33.7" height="44"/>
			<rect x="475.9" y="557.7" class="st2" width="24.2" height="13.1"/>
			<line class="st2" x1="471.8" y1="575.3" x2="505" y2="575.3"/>
			<line class="st2" x1="496.5" y1="575.3" x2="496.5" y2="582.1"/>
			<line class="st2" x1="500.8" y1="575.3" x2="500.8" y2="582.1"/>
			<line class="st2" x1="505" y1="575.3" x2="505" y2="582.1"/>
			<line class="st2" x1="471.2" y1="575.3" x2="471.2" y2="581.4"/>
			<line class="st2" x1="475.5" y1="575.3" x2="475.5" y2="581.4"/>
			<line class="st2" x1="479.6" y1="575.3" x2="479.6" y2="581.4"/>
			<line class="st2" x1="483.9" y1="575.3" x2="483.9" y2="581.4"/>
			<line class="st2" x1="488" y1="575.3" x2="488" y2="581.4"/>
			<line class="st2" x1="492.2" y1="575.3" x2="492.2" y2="581.4"/>
			<line class="st2" x1="431.1" y1="532.1" x2="546.5" y2="532.1"/>
			<polyline class="st2" points="435.4,519.3 438.9,522.8 442.2,519.4 445.6,522.8 449.1,519.3 452.6,522.8 456,519.3 459.5,522.8 
				463,519.3 466.5,522.8 470,519.3 473.5,522.8 477,519.3 480.5,522.8 484,519.3 487.5,522.8 491,519.3 494.5,522.8 498,519.3 
				501.5,522.8 505,519.3 508.5,522.8 512,519.3 515.5,522.8 519,519.3 522.5,522.8 526,519.3 529.5,522.8 			"/>
			<polyline class="st2" points="431.2,511.1 431.2,506.2 436.2,506.2 436.2,501.2 441.1,501.2 441.1,496.3 446.1,496.3 
				446.1,491.4 451,491.4 451,488.7 481.2,458.5 			"/>
			<circle class="st2" cx="483.6" cy="456.1" r="3.6"/>
		</g>
		<g>
			<polygon class="st1" points="668.8,484.8 668.8,502.9 668.8,502.9 683,517 683,587.4 640,587.4 640,517 654,502.9 654,502.9 
				654,484.8 			"/>
			<rect x="646.8" y="523.2" class="st2" width="29.1" height="56.6"/>
			<path class="st3" d="M670.5,490.3h-18c-0.8,0-1.4,0.6-1.4,1.4s0.6,1.4,1.4,1.4h18c0.8,0,1.4-0.6,1.4-1.4S671.2,490.3,670.5,490.3
				z"/>
			<line class="st2" x1="640" y1="531.6" x2="645.7" y2="531.6"/>
			<line class="st2" x1="675.8" y1="531.6" x2="683" y2="531.6"/>
		</g>
		<g>
			<polygon class="st2" points="608.8,452.5 606.5,465.9 583.2,465.9 580.8,452.5 			"/>
			<rect x="568.5" y="523.6" class="st2" width="51.9" height="42.2"/>
			<path class="st2" d="M628.8,505.8v81.6h-68v-81.6c0-5.8,4.7-10.5,10.5-10.5h12.5v-18.5h-2.9v-10.9h27.9v10.9h-2.9v18.5h12.5
				C624,495.4,628.8,500.1,628.8,505.8z"/>
			<path class="st4" d="M613.3,505.3c-0.1,0-3.4,5.4-3.4,7.3c0,1.9,1.5,3.4,3.4,3.4s3.4-1.5,3.4-3.4
				C616.8,510.7,613.3,505.3,613.3,505.3z"/>
			<line class="st2" x1="583.8" y1="487.8" x2="605.8" y2="487.8"/>
		</g>
		<path class="st2" d="M1626.2,587.4"/>
		<g id="chicken">
			<path class="st3" d="M822.7,522.6c-0.5-5.6-5.1-10-10.6-10.6c-6.4-0.6-11.9,4-12.8,10.1l0,0c-0.2,0,0.4,13.5-16.4,13.5h-15.5
				c-5.1-15.3-18.6-14.5-18.6-14.5l0,0c-1.9,0.1-3.5,1.5-3.8,3.5c-0.3,2.2,1.2,4.4,3.4,4.7c0.1,0,0.2,0,0.3,0l0,0
				c-1.6,0.1-2.9,1.2-3.2,2.9c-0.3,1.8,1,3.6,2.8,3.8c0.1,0,0.2,0,0.3,0l0,0c-1.2,0.1-2.1,1-2.3,2.2c-0.2,1.4,0.8,2.8,2.2,3
				c0.2,0,0.3,0,0.5,0c2.7,15,15.8,26.4,31.6,26.4c17.8,0,32.2-14.4,32.2-32.2l-0.1-0.2C818.8,534.4,823.2,528.9,822.7,522.6z"/>
			<circle class="st2" cx="823.8" cy="515" r="2.7"/>
			<circle class="st2" cx="819.7" cy="509.9" r="3.9"/>
			<circle class="st2" cx="811.5" cy="506.5" r="4.9"/>
			<polyline class="st2" points="822.2,519.2 831,523.2 822,527.3 			"/>
			<circle cx="815.7" cy="521.1" r="1.4"/>
			<polyline class="st0" points="776.5,567.4 776.5,585.6 785.8,585.6 			"/>
			<polyline class="st0" points="783,567.4 783,585.6 792.2,585.6 			"/>
		</g>
		<g id="chicken_x5F_eat">
			<polyline class="st0" points="777,567.4 777,585.6 786.2,585.6 			"/>
			<polyline class="st0" points="783.5,567.4 783.5,585.6 792.7,585.6 			"/>
			<path class="st3" d="M830.8,559.6c3.5-4.3,3.5-10.7,0-15c-4.1-5-11.2-5.6-16.2-1.9l0,0c-0.1-0.1-9.2,9.8-21.1-2.1l-10.9-10.9
				c7.2-14.4-2.9-23.4-2.9-23.4l0,0c-1.4-1.2-3.6-1.4-5.1-0.2c-1.8,1.3-2.2,3.9-0.9,5.8c0.1,0.1,0.1,0.2,0.2,0.3l0,0
				c-1.2-1-2.9-1.2-4.3-0.2c-1.5,1.1-1.8,3.2-0.7,4.7c0.1,0.1,0.1,0.2,0.2,0.3l0,0c-0.9-0.7-2.2-0.8-3.2-0.1
				c-1.2,0.9-1.4,2.5-0.6,3.7c0.1,0.1,0.2,0.2,0.3,0.3c-8.7,12.5-7.5,29.9,3.7,41c12.6,12.6,32.9,12.6,45.5,0l0.1-0.2
				C819.8,565.3,826.8,564.6,830.8,559.6z"/>
			<circle class="st2" cx="836.8" cy="555" r="2.7"/>
			<circle class="st2" cx="837.7" cy="548.5" r="3.9"/>
			<circle class="st2" cx="834.2" cy="540.4" r="4.9"/>
			<polyline class="st2" points="832.8,556.9 836.2,565.9 826.8,562.5 			"/>
			<circle cx="826.8" cy="553.6" r="1.4"/>
		</g>
		<g>
			<g>
				<polygon class="st2" points="368.4,436.6 387,413.3 379.8,401.8 368.4,401.8 356.9,401.8 349.8,413.3 				"/>
				<line class="st2" x1="349.8" y1="413.3" x2="387" y2="413.3"/>
				<polyline class="st2" points="368.4,401.8 361.8,413.3 368.4,436.6 				"/>
				<polyline class="st2" points="368.4,401.8 375,413.3 368.4,436.6 				"/>
				<line class="st2" x1="375" y1="413.3" x2="379.8" y2="401.8"/>
			</g>
			<g>
				<path class="st3" d="M368.4,547.4c0,0,52.9-15.6,21-33.3c0,0,27.1-25.4-1.2-32.5c0,0,15.1-22.7-19.8-43
					c-34.9,20.3-19.8,43-19.8,43c-28.2,7.1-1.2,32.5-1.2,32.5C315.5,531.8,368.4,547.4,368.4,547.4z"/>
				<line class="st2" x1="368.4" y1="495.5" x2="368.4" y2="531.8"/>
				<line class="st0" x1="368.4" y1="492.3" x2="368.4" y2="528.1"/>
				<line class="st2" x1="368.4" y1="547.4" x2="368.4" y2="586.4"/>
			</g>
		</g>
		<g>
			<g>
				<path class="st3" d="M1553.2,416c0,0,58.4-17.3,23.2-36.8c0,0,29.9-28.1-1.3-35.9c0,0,16.7-25.1-21.9-47.5
					c-38.6,22.4-21.9,47.5-21.9,47.5c-31.2,7.8-1.3,35.9-1.3,35.9C1494.8,398.7,1553.2,416,1553.2,416z"/>
				<line class="st2" x1="1553.2" y1="358.7" x2="1553.2" y2="398.7"/>
				<line class="st0" x1="1553.2" y1="355.2" x2="1553.2" y2="394.7"/>
				<line class="st2" x1="1553.2" y1="416" x2="1553.2" y2="461.6"/>
			</g>
		</g>
		<g>
			<line class="st2" x1="1400.7" y1="587.4" x2="1400.7" y2="537.1"/>
			<line class="st2" x1="1400.7" y1="565.8" x2="1410.4" y2="538.8"/>
			<line class="st2" x1="1400.7" y1="565.8" x2="1419.1" y2="543.8"/>
			<line class="st2" x1="1400.8" y1="565.8" x2="1375.9" y2="551.4"/>
			<line class="st2" x1="1400.7" y1="565.8" x2="1382.2" y2="543.8"/>
			<line class="st2" x1="1400.7" y1="565.8" x2="1390.8" y2="538.8"/>
			<path class="st3" d="M1400.7,572.7c0,0.8,0,1.7,0,2.5c0.9,0,1.7,0,2.5,0c12.4,0,22.5-10.1,22.5-22.5c0-0.8,0-1.6-0.1-2.4
				c-0.8-0.1-1.6-0.1-2.4-0.1C1410.7,550.2,1400.7,560.3,1400.7,572.7z"/>
			<path class="st3" d="M1400.7,572.7c0,0.8,0,1.5,0,2.5c-0.9,0-1.7,0-2.5,0c-12.4,0-22.5-10.1-22.5-22.5c0-0.8,0-1.6,0.1-2.4
				c0.8-0.1,1.6-0.1,2.4-0.1C1390.6,550.2,1400.7,560.3,1400.7,572.7z"/>
			<circle class="st3" cx="1400.7" cy="537.1" r="2.1"/>
			<circle class="st3" cx="1410.4" cy="538.8" r="2.1"/>
			<circle class="st3" cx="1390.8" cy="538.8" r="2.1"/>
			<circle class="st3" cx="1382.2" cy="543.8" r="2.1"/>
			<circle class="st3" cx="1419.1" cy="543.8" r="2.1"/>
		</g>
		<g>
			<rect x="921.5" y="465.7" class="st3" width="77.6" height="121.7"/>
			<circle class="st2" cx="960.2" cy="500.2" r="22.6"/>
			<circle class="st2" cx="960.2" cy="500.2" r="7.6"/>
			<circle class="st2" cx="960.2" cy="553.2" r="22.6"/>
			<circle class="st2" cx="960.2" cy="553.2" r="7.6"/>
			<polyline class="st2" points="924.8,481.6 924.8,469 937.3,469 			"/>
			<polyline class="st2" points="983.2,469 995.8,469 995.8,481.6 			"/>
			<polyline class="st2" points="924.8,571.8 924.8,584.3 937.3,584.3 			"/>
			<polyline class="st2" points="983.2,584.3 995.8,584.3 995.8,571.8 			"/>
		</g>
		<polygon id="play" class="st3" points="484.4,542.8 493.4,548 484.4,553.3 		"/>
		<g>
			<line class="st2" x1="884.8" y1="586.7" x2="884.8" y2="536.3"/>
			<line class="st2" x1="884.8" y1="565.1" x2="894.5" y2="538"/>
			<line class="st2" x1="884.8" y1="565.1" x2="903.2" y2="543"/>
			<line class="st2" x1="885" y1="565.1" x2="860" y2="550.7"/>
			<line class="st2" x1="884.8" y1="565.1" x2="866.2" y2="543"/>
			<line class="st2" x1="884.8" y1="565.1" x2="875" y2="538"/>
			<path class="st3" d="M884.8,571.9c0,0.8,0,1.7,0,2.5c0.9,0,1.7,0,2.5,0c12.4,0,22.5-10.1,22.5-22.5c0-0.8,0-1.6-0.1-2.4
				c-0.8-0.1-1.6-0.1-2.4-0.1C894.8,549.4,884.8,559.5,884.8,571.9z"/>
			<path class="st3" d="M884.8,571.9c0,0.8,0,1.5,0,2.5c-0.9,0-1.7,0-2.5,0c-12.4,0-22.5-10.1-22.5-22.5c0-0.8,0-1.6,0.1-2.4
				c0.8-0.1,1.6-0.1,2.4-0.1C874.7,549.4,884.8,559.5,884.8,571.9z"/>
			<circle class="st3" cx="884.8" cy="536.3" r="2.1"/>
			<circle class="st3" cx="894.5" cy="538" r="2.1"/>
			<circle class="st3" cx="875" cy="538" r="2.1"/>
			<circle class="st3" cx="866.2" cy="543" r="2.1"/>
			<circle class="st3" cx="903.2" cy="543" r="2.1"/>
		</g>
		<path id="drip1" class="st4" d="M615,600.7c-0.1,0-3.4,5.3-3.4,7.1c0,1.9,1.5,3.4,3.4,3.4s3.4-1.5,3.4-3.4
			C618.5,606,615.2,600.7,615,600.7z"/>
		<path id="drip3" class="st4" d="M615,640c-0.1,0-3.4,5.3-3.4,7.1c0,1.9,1.5,3.4,3.4,3.4s3.4-1.5,3.4-3.4
			C618.5,645.3,615.2,640,615,640z"/>
		<g>
			<path d="M573.8,529.8h3.5l3.6,5.1v-5.1h4.1V543h-3.5l-3.6-5.1v5.1h-4.1V529.8z M576,541.4v-9.1l6.5,9.1h0.5v-10h-0.5v9.1
				l-6.5-9.1h-0.5v10H576z"/>
			<path d="M587.7,536.4c0-0.9,0.2-1.8,0.5-2.7c0.4-0.8,0.9-1.6,1.5-2.2c0.6-0.6,1.4-1.1,2.2-1.5c0.8-0.4,1.7-0.5,2.7-0.5
				s1.8,0.2,2.7,0.5c0.8,0.4,1.6,0.9,2.2,1.5c0.6,0.6,1.1,1.4,1.5,2.2c0.4,0.8,0.5,1.7,0.5,2.7s-0.2,1.8-0.5,2.7
				c-0.4,0.8-0.9,1.6-1.5,2.2c-0.6,0.6-1.4,1.1-2.2,1.5c-0.8,0.4-1.7,0.5-2.7,0.5s-1.8-0.2-2.7-0.5c-0.8-0.4-1.6-0.9-2.2-1.5
				c-0.6-0.6-1.1-1.4-1.5-2.2C587.8,538.2,587.7,537.3,587.7,536.4z M589.5,536.4c0,0.7,0.1,1.4,0.4,2c0.3,0.6,0.6,1.1,1.1,1.6
				s1,0.8,1.6,1.1c0.6,0.3,1.3,0.4,2,0.4s1.4-0.1,2-0.4s1.1-0.6,1.6-1.1s0.8-1,1.1-1.6c0.3-0.6,0.4-1.3,0.4-2s-0.1-1.4-0.4-2
				c-0.3-0.6-0.6-1.1-1.1-1.6s-1-0.8-1.6-1.1s-1.3-0.4-2-0.4s-1.4,0.1-2,0.4s-1.1,0.6-1.6,1.1s-0.8,1-1.1,1.6
				C589.7,535,589.5,535.7,589.5,536.4z M594.5,540.9c-0.6,0-1.2-0.1-1.8-0.4c-0.5-0.2-1-0.6-1.4-1c-0.4-0.4-0.7-0.9-1-1.4
				c-0.2-0.5-0.4-1.1-0.4-1.8c0-0.6,0.1-1.2,0.4-1.8c0.2-0.5,0.6-1,1-1.4c0.4-0.4,0.9-0.7,1.4-1c0.5-0.2,1.1-0.4,1.8-0.4
				c0.6,0,1.2,0.1,1.8,0.4c0.5,0.2,1,0.6,1.4,1c0.4,0.4,0.7,0.9,1,1.4c0.2,0.5,0.4,1.1,0.4,1.8c0,0.6-0.1,1.2-0.4,1.8
				c-0.2,0.5-0.6,1-1,1.4c-0.4,0.4-0.9,0.7-1.4,1S595.2,540.9,594.5,540.9z M591.8,536.4c0,0.4,0.1,0.7,0.2,1.1
				c0.1,0.3,0.3,0.6,0.6,0.9c0.2,0.2,0.5,0.4,0.9,0.6c0.3,0.1,0.7,0.2,1.1,0.2s0.7-0.1,1.1-0.2c0.3-0.1,0.6-0.3,0.9-0.6
				c0.2-0.2,0.4-0.5,0.6-0.9c0.1-0.3,0.2-0.7,0.2-1.1c0-0.4-0.1-0.7-0.2-1.1c-0.1-0.3-0.3-0.6-0.6-0.9s-0.5-0.4-0.9-0.6
				c-0.3-0.1-0.7-0.2-1.1-0.2s-0.7,0.1-1.1,0.2c-0.3,0.1-0.6,0.3-0.9,0.6c-0.3,0.3-0.4,0.5-0.6,0.9
				C591.9,535.7,591.8,536,591.8,536.4z"/>
			<path d="M604.2,529.8h3.5l3.6,5.1v-5.1h4.1V543h-3.5l-3.6-5.1v5.1h-4.1V529.8z M606.5,541.4v-9.1l6.5,9.1h0.5v-10H613v9.1
				l-6.5-9.1H606v10H606.5z"/>
			<path d="M573.8,547.2h4.2v4.5h2.3v-4.5h4.2v13.2h-4.2v-4.9H578v4.9h-4.2V547.2z M576.2,558.8v-5h5.8v5h0.5v-10H582v4.5h-5.8v-4.5
				h-0.5v10H576.2z"/>
			<path d="M592.2,554.1c0.3-0.5,0.5-0.9,0.5-1.2c0.1-0.3,0.1-0.5,0.1-0.8c0-0.9-0.5-1.3-1.6-1.3c-0.1,0-0.2,0-0.3,0s-0.2,0-0.3,0
				s-0.2,0-0.3,0v-3.7c0.2,0,0.3-0.1,0.5-0.1c0.1,0,0.3,0,0.4-0.1c0.1,0,0.3,0,0.4,0c0.2,0,0.3,0,0.5,0c0.6,0,1.3,0.1,1.9,0.2
				s1.2,0.4,1.6,0.7c0.5,0.3,0.9,0.7,1.2,1.3c0.3,0.5,0.5,1.2,0.5,1.9c0,0.4,0,0.7-0.1,1.1c-0.1,0.3-0.2,0.7-0.4,1.1
				c-0.2,0.4-0.4,0.9-0.6,1.4c-0.3,0.5-0.6,1.1-0.9,1.8l-0.3,0.5h2.5l-1.1,3.5h-7.7L592.2,554.1z M595.3,558.8l0.2-0.5h-3.2l2.2-4.2
				c0.2-0.5,0.4-0.9,0.6-1.3s0.2-0.9,0.2-1.3c0-0.9-0.3-1.5-0.8-2c-0.6-0.4-1.3-0.7-2.2-0.7h-0.1h-0.1h-0.1v0.5h0.1h0.1h0.1
				c0.8,0,1.4,0.2,1.8,0.6c0.5,0.4,0.7,0.9,0.7,1.6c0,0.4-0.1,0.8-0.2,1.2c-0.1,0.4-0.3,0.8-0.6,1.3l-2.6,4.9L595.3,558.8
				L595.3,558.8L595.3,558.8z"/>
			<path d="M601.8,553.8c0-0.9,0.2-1.8,0.5-2.7c0.4-0.8,0.9-1.6,1.5-2.2s1.4-1.1,2.2-1.5s1.7-0.5,2.7-0.5s1.8,0.2,2.7,0.5
				s1.6,0.9,2.2,1.5s1.1,1.4,1.5,2.2s0.5,1.7,0.5,2.7s-0.2,1.8-0.5,2.7c-0.4,0.8-0.9,1.6-1.5,2.2s-1.4,1.1-2.2,1.5s-1.7,0.5-2.7,0.5
				s-1.8-0.2-2.7-0.5c-0.8-0.4-1.6-0.9-2.2-1.5s-1.1-1.4-1.5-2.2C602,555.7,601.8,554.8,601.8,553.8z M603.8,553.8
				c0,0.7,0.1,1.4,0.4,2s0.6,1.1,1.1,1.6s1,0.8,1.6,1.1s1.3,0.4,2,0.4s1.4-0.1,2-0.4s1.1-0.6,1.6-1.1s0.8-1,1.1-1.6s0.4-1.3,0.4-2
				s-0.1-1.4-0.4-2s-0.6-1.1-1.1-1.6s-1-0.8-1.6-1.1s-1.3-0.4-2-0.4s-1.4,0.1-2,0.4s-1.1,0.6-1.6,1.1s-0.8,1-1.1,1.6
				C603.8,552.5,603.8,553.1,603.8,553.8z M608.8,558.4c-0.6,0-1.2-0.1-1.8-0.4c-0.5-0.2-1-0.6-1.4-1s-0.7-0.9-1-1.4
				c-0.2-0.5-0.4-1.1-0.4-1.8c0-0.6,0.1-1.2,0.4-1.8c0.2-0.5,0.6-1,1-1.4s0.9-0.7,1.4-1c0.5-0.2,1.1-0.4,1.8-0.4
				c0.6,0,1.2,0.1,1.8,0.4c0.5,0.2,1,0.6,1.4,1s0.7,0.9,1,1.4c0.2,0.5,0.4,1.1,0.4,1.8c0,0.6-0.1,1.2-0.4,1.8c-0.2,0.5-0.6,1-1,1.4
				s-0.9,0.7-1.4,1C610,558.2,609.5,558.4,608.8,558.4z M606,553.8c0,0.4,0.1,0.7,0.2,1.1c0.1,0.3,0.3,0.6,0.6,0.9
				c0.2,0.2,0.5,0.4,0.9,0.6s0.7,0.2,1.1,0.2s0.7-0.1,1.1-0.2s0.6-0.3,0.9-0.6c0.2-0.2,0.4-0.5,0.6-0.9c0.1-0.3,0.2-0.7,0.2-1.1
				s-0.1-0.7-0.2-1.1c-0.1-0.3-0.3-0.6-0.6-0.9s-0.5-0.4-0.9-0.6s-0.7-0.2-1.1-0.2s-0.7,0.1-1.1,0.2s-0.6,0.3-0.9,0.6
				s-0.4,0.5-0.6,0.9C606.2,553.1,606,553.4,606,553.8z"/>
		</g>
		<g>
			<path class="st3" d="M1262.9,611.7c0-0.8,0-1.7,0-2.5c-0.9,0-1.7,0-2.5,0c-12.4,0-22.5,10.1-22.5,22.5c0,0.8,0,1.6,0.1,2.4
				c0.8,0.1,1.6,0.1,2.4,0.1C1252.8,634.2,1262.9,624.1,1262.9,611.7z"/>
			<path class="st3" d="M1294.3,594.8c0.3-0.8,0.6-1.6,0.8-2.4c-0.8-0.3-1.6-0.6-2.4-0.8c-11.7-4.2-24.6,1.9-28.8,13.6
				c-0.3,0.8-0.5,1.5-0.7,2.3c0.7,0.3,1.4,0.7,2.2,0.9C1277.2,612.6,1290.2,606.5,1294.3,594.8z"/>
			<path class="st3" d="M1285.4,634.2c0.8,0,1.7,0,2.5,0c0-0.9,0-1.7,0-2.5c0-12.4-10.1-22.5-22.5-22.5c-0.8,0-1.6,0-2.4,0.1
				c-0.1,0.8-0.1,1.6-0.1,2.4C1262.9,624.1,1273.1,634.2,1285.4,634.2z"/>
			<path class="st2" d="M1262.9,612c0-28.7,23.3-51.9,51.9-51.9"/>
			<line class="st0" x1="1263.3" y1="607.5" x2="1284.8" y2="597.3"/>
			<polyline class="st0" points="1245.2,626.9 1262.9,609.2 1267.4,614.3 1269.9,614.3 1269.9,618.8 1274.7,618.8 1274.7,623.5 
				1279.8,623.5 1279.8,625.8 			"/>
		</g>
		<circle class="st2" cx="1262.6" cy="634.2" r="3.3"/>
		<circle class="st2" cx="1271.9" cy="643.6" r="3.3"/>
		<circle class="st2" cx="1262.6" cy="651.4" r="3.3"/>
		<g>
			<g>
				<path class="st3" d="M1223.2,584.4c0.6-0.6,1.2-1.2,1.8-1.8c-0.6-0.6-1.2-1.2-1.8-1.8c-8.8-8.8-23-8.8-31.8,0
					c-0.6,0.6-1.1,1.2-1.6,1.8c0.5,0.6,1,1.2,1.6,1.8C1200.2,593.2,1214.4,593.2,1223.2,584.4z"/>
				<path class="st3" d="M1257.2,594.7c0.7-0.3,1.5-0.7,2.3-1.1c-0.4-0.8-0.7-1.5-1.1-2.3c-5.3-11.2-18.7-16-30-10.7
					c-0.7,0.3-1.4,0.7-2.1,1.1c0.3,0.7,0.6,1.5,0.9,2.2C1232.7,595.2,1246.1,600,1257.2,594.7z"/>
				<path class="st3" d="M1223.2,616.2c0.6,0.6,1.2,1.2,1.8,1.8c0.6-0.6,1.2-1.2,1.8-1.8c8.8-8.8,8.8-23,0-31.8
					c-0.6-0.6-1.2-1.1-1.8-1.6c-0.6,0.5-1.2,1-1.8,1.6C1214.4,593.2,1214.4,607.5,1223.2,616.2z"/>
				<path class="st2" d="M1222.9,584.7c15.5-15.5,38.5-19.2,57.5-10.9"/>
				<line class="st0" x1="1226.4" y1="581.8" x2="1248.8" y2="589.8"/>
				<polyline class="st0" points="1199.9,582.6 1224.9,582.6 1224.6,589.5 1226.2,591.2 1223.2,594.4 1226.4,597.7 1223.2,601 
					1226.8,604.7 1225.2,606.3 				"/>
			</g>
			<circle class="st2" cx="1206.9" cy="600" r="3.3"/>
			<path class="st2" d="M1205.7,619.2c-1.3,1.3-3.4,1.3-4.7,0s-1.3-3.4,0-4.7c4-4,0.7-4,4.7,0
				C1206.9,615.7,1206.9,617.9,1205.7,619.2z"/>
			<circle class="st2" cx="1216.6" cy="622.4" r="3.3"/>
		</g>
		<g>
			<path d="M1327.3,398.2h5.7l2,5.9l2-5.9h3.7l2,5.9l2-5.9h5.7l-5.6,16.9h-4.2l-1.7-5.1l-1.7,5.1h-4.2L1327.3,398.2z M1335.4,413.1
				l3.4-10.6l3.4,10.6h0.6l4.2-12.9h-0.7l-3.9,11.7l-3.7-11.7l-3.7,11.7l-3.9-11.7h-0.7l4.2,12.9H1335.4z"/>
			<path d="M1351.7,398.2h6.6c0.8,0,1.6,0.1,2.3,0.3c0.7,0.2,1.3,0.5,1.8,0.9s0.9,0.9,1.2,1.4c0.3,0.6,0.4,1.2,0.4,2
				c0,0.5-0.1,1-0.2,1.4s-0.3,0.7-0.4,1c-0.2,0.3-0.4,0.6-0.6,0.8c0.4,0.2,0.7,0.5,1,0.9c0.3,0.3,0.5,0.7,0.7,1.2s0.3,1.1,0.3,1.8
				c0,0.8-0.1,1.5-0.4,2.2s-0.7,1.2-1.2,1.7s-1.2,0.8-2,1.1c-0.8,0.2-1.6,0.4-2.6,0.4h-6.9L1351.7,398.2L1351.7,398.2z
				 M1357.8,413.1c1.5,0,2.6-0.3,3.3-1s1.1-1.5,1.1-2.6c0-0.7-0.1-1.2-0.4-1.7c-0.3-0.4-0.6-0.7-1-1s-0.9-0.5-1.4-0.6
				c0.4-0.1,0.8-0.3,1.1-0.6c0.3-0.2,0.5-0.5,0.8-0.9c0.2-0.4,0.3-0.9,0.3-1.5c0-1.1-0.3-1.9-1-2.4s-1.6-0.8-2.8-0.8h-3.7v12.9h3.7
				V413.1z M1354.8,406.1v-5.2h3c1.1,0,1.9,0.2,2.4,0.7s0.7,1.1,0.7,1.9s-0.2,1.4-0.7,1.9s-1.3,0.7-2.4,0.7H1354.8z M1354.8,412.5
				v-5.8h3c0.5,0,1,0.1,1.5,0.2c0.4,0.1,0.8,0.3,1.2,0.5c0.3,0.2,0.6,0.5,0.8,0.9c0.2,0.4,0.3,0.8,0.3,1.3c0,1-0.3,1.8-1,2.2
				c-0.7,0.5-1.6,0.7-2.7,0.7L1354.8,412.5L1354.8,412.5z M1358.8,403.4c0-0.8-0.4-1.2-1.3-1.2h-0.6v2.3h0.6
				C1358.3,404.5,1358.8,404.2,1358.8,403.4z M1357.6,411.2c1.3,0,1.9-0.5,1.9-1.5s-0.6-1.5-1.9-1.5h-0.6v2.9h0.6V411.2z"/>
		</g>
		<circle cx="1346.6" cy="380.4" r="1.8"/>
		<path id="drip2" class="st2" d="M607,629.8c-1.3,1.3-3.4,1.3-4.7,0s-1.3-3.4,0-4.7c4-4,0.7-4,4.7,0
			C608.5,626.4,608.5,628.5,607,629.8z"/>
		<polygon id="bolt" class="st3" points="855.5,601.7 818,624.5 830,627.2 812.3,639.2 824.2,642.2 804.7,660 840.3,640.1 828,637 
			846.2,625.4 834,622.3 		"/>
		<g id="disco_x5F_ball">
			<ellipse class="st2" cx="452" cy="266.2" rx="27.7" ry="28"/>
			<line class="st2" x1="452" y1="233.4" x2="452" y2="294.2"/>
			<line class="st2" x1="433.4" y1="245.5" x2="433.4" y2="286.9"/>
			<line class="st2" x1="442.6" y1="239.9" x2="442.6" y2="292.5"/>
			<line class="st2" x1="460.9" y1="239.7" x2="460.9" y2="292.7"/>
			<line class="st2" x1="470.1" y1="245.1" x2="470.1" y2="287.3"/>
			<line class="st2" x1="480" y1="266.4" x2="423.5" y2="266.4"/>
			<line class="st2" x1="472.6" y1="247.6" x2="431.2" y2="247.6"/>
			<line class="st2" x1="477.8" y1="257" x2="425.8" y2="257"/>
			<line class="st2" x1="477.8" y1="275.4" x2="425.9" y2="275.4"/>
			<line class="st2" x1="472.5" y1="284.8" x2="431.8" y2="284.8"/>
			<line class="st2" x1="424.2" y1="266.2" x2="479.4" y2="266.2"/>
			<ellipse class="st2" cx="452" cy="229.2" rx="4.2" ry="4.3"/>
		</g>
		<g id="music-note2">
			<circle class="st2" cx="587.5" cy="371.4" r="6.9"/>
			<circle class="st2" cx="615.2" cy="371.4" r="6.9"/>
			<polyline class="st2" points="622.2,371.4 622.2,339.5 622.2,339.5 618.8,336 615.2,339.5 611.8,336 608.2,339.5 604.8,336 
				601.3,339.4 598,336 594.5,339.5 594.5,339.5 594.5,371.4 			"/>
		</g>
		<g id="music-note4">
			<circle class="st2" cx="743" cy="335" r="6.9"/>
			<circle class="st2" cx="770.7" cy="335" r="6.9"/>
			<polyline class="st2" points="777.7,335 777.7,303.1 777.7,303.1 774.2,299.6 770.7,303.1 767.2,299.6 763.7,303.1 760.2,299.6 
				756.8,303 753.3,299.6 749.8,303.1 749.8,303.1 749.8,335 			"/>
		</g>
		<g>
			<circle class="st2" cx="531.3" cy="455.3" r="6.9"/>
			<polyline class="st2" points="552,423.3 548.7,419.8 545.2,423.3 541.8,419.9 538.3,423.3 538.3,423.3 538.3,455.3 			"/>
		</g>
		<g id="music-note3">
			<circle class="st2" cx="682.8" cy="412.5" r="6.9"/>
			<polyline class="st2" points="703.5,380.5 700,377 696.5,380.4 693.2,377 689.8,380.5 689.8,380.5 689.8,412.5 			"/>
		</g>
		<g id="sun">
			<path class="st2" d="M438.5,261.2c1.8-5.6,7-9.6,13.2-9.6c7.6,0,13.8,6.2,13.8,13.8c0,2.2-0.5,4.2-1.4,6"/>
			<line class="st2" x1="478" y1="265.6" x2="495.1" y2="265.6"/>
			<line class="st2" x1="451.8" y1="239.2" x2="451.8" y2="222.1"/>
			<line class="st2" x1="471" y1="246.4" x2="483" y2="234.3"/>
			<line class="st2" x1="420.5" y1="234.3" x2="432.5" y2="246.4"/>
			<g>
				<path class="st2" d="M464.8,269.9c-1.8,5.6-7,9.6-13.2,9.6c-7.6,0-13.8-6.2-13.8-13.8c0-2.2,0.5-4.2,1.4-6"/>
				<line class="st2" x1="425.2" y1="265.5" x2="408.1" y2="265.5"/>
				<line class="st2" x1="451.5" y1="291.9" x2="451.5" y2="309"/>
				<line class="st2" x1="432.4" y1="284.7" x2="420.2" y2="296.8"/>
				<line class="st2" x1="482.9" y1="296.8" x2="470.8" y2="284.7"/>
			</g>
		</g>
		<path id="cloud" class="st3" d="M463.2,278.7c-2.5-8.1-10.6-14.6-22.3-13.2c-15.5-12.8-38.6-3.9-42,16.1
			c-17.4,10.5-8.4,32.7,9.2,32.7h57.3c10.6,0,19.5-8.2,19.5-17.9C485,286.7,475.4,277.6,463.2,278.7z"/>
		
			<animate  fill="freeze" xlink:href="#cloud-move" calcMode="linear" begin="click" restart="always" dur="1s" to="450" attributeName="cx" accumulate="none" additive="replace" from="50">
			</animate>
		<g id="dumstick">
			<path class="st2" d="M786.5,559.2l11.4,11.4c-1.9,1.3-2.1,4-0.5,5.6c2.7,2.7,7.3-0.1,6.1-3.8c3.7,1.3,6.5-3.3,3.8-6.1
				c-1.6-1.6-4.4-1.4-5.7,0.6l-11.4-11.4"/>
			<path class="st3" d="M793.2,564.4h-7.6c0,0-6.1-0.1-9-2.8c-5.5-5.2-18-16-16-25.7c1.5-7.3,7.4-11.6,16-10c5.4,1,13.3,8.7,18,16
				c3.2,4.8,2.6,11.8,2.6,11.8l-1,7.8L793.2,564.4z"/>
		</g>
		<g id="pop">
			<line class="st2" x1="793" y1="551.1" x2="799" y2="551.1"/>
			<line class="st2" x1="783.5" y1="561.3" x2="783.5" y2="535.6"/>
			<line class="st2" x1="775.2" y1="559.4" x2="794.5" y2="540.2"/>
			<line class="st2" x1="772.7" y1="540.1" x2="791" y2="558.5"/>
			<line class="st2" x1="796" y1="551" x2="768" y2="551"/>
			<line class="st2" x1="783.5" y1="560.4" x2="783.5" y2="566.5"/>
			<line class="st2" x1="777" y1="557.7" x2="772.7" y2="562"/>
			<line class="st2" x1="794.5" y1="562" x2="790.2" y2="557.7"/>
		</g>
		<circle id="bass1" class="st2" cx="960.2" cy="500.2" r="19.3"/>
		<circle id="bass2" class="st2" cx="960.2" cy="553.2" r="19.3"/>
		<circle id="stereo1" class="st2" cx="448.8" cy="563.2" r="13.4"/>
		<circle class="st2" cx="526.8" cy="563.2" r="13.4"/>
	</g>
</g>
<g id="Layer_2_1_">
</g>
<g id="Layer_1_2_">
	<g>
		<g>
			<line class="st0" x1="34.2" y1="515.1" x2="34.2" y2="585.4"/>
			<line class="st0" x1="29.8" y1="585.4" x2="29.8" y2="515.1"/>
			<line class="st0" x1="71" y1="463.6" x2="34.2" y2="515.1"/>
			<line class="st0" x1="-7" y1="463.6" x2="29.8" y2="515.1"/>
			<path class="st1" d="M39.4,584.9c0-4.1-3.3-7.4-7.4-7.4s-7.4,3.3-7.4,7.4"/>
			<line class="st0" x1="-1" y1="585.4" x2="65" y2="585.4"/>
			<line class="st0" x1="29.8" y1="515.1" x2="34.2" y2="515.1"/>
			<path class="st0" d="M2,476.1l2.6,2.6c1.3,1.4,3.5,1.4,4.9,0l0.2-0.2c1.3-1.4,3.5-1.4,4.9,0l0.1,0.1c1.3,1.4,3.5,1.4,4.9,0l0,0
				c1.3-1.4,3.5-1.4,4.9,0l0,0c1.3,1.4,3.5,1.4,4.9,0l0.1-0.1c1.3-1.4,3.5-1.4,4.9,0l0.2,0.2c1.3,1.4,3.5,1.4,4.9,0l0.1-0.1
				c1.3-1.4,3.5-1.4,4.9,0l0,0c1.3,1.4,3.5,1.4,4.9,0l0.1-0.1c1.3-1.4,3.5-1.4,4.9,0l0.1,0.1c1.3,1.4,3.5,1.4,4.9,0L62,476"/>
		</g>
		<g>
			<line class="st0" x1="-713.4" y1="352.1" x2="-704.3" y2="336.5"/>
			<g>
				<rect x="-718.8" y="411.3" class="st2" width="19.1" height="7.9"/>
				<line class="st0" x1="-664.2" y1="586.8" x2="-702.4" y2="424"/>
				<line class="st0" x1="-689.2" y1="501.9" x2="-707.6" y2="424"/>
				<line class="st0" x1="-756.2" y1="586.8" x2="-717.8" y2="424"/>
				<line class="st0" x1="-731.1" y1="501.9" x2="-712.7" y2="424"/>
				
					<rect x="-728.1" y="368.8" transform="matrix(-0.862 -0.5069 0.5069 -0.862 -1503.5385 355.2543)" class="st2" width="49.4" height="27"/>
				<line class="st0" x1="-743.4" y1="403.3" x2="-734.2" y2="387.7"/>
				<circle class="st0" cx="-709.3" cy="404.2" r="2.7"/>
			</g>
		</g>
		<g>
			<rect x="-195.7" y="363.3" class="st2" width="30.2" height="30.2"/>
			<circle class="st2" cx="-180.5" cy="378.4" r="10.6"/>
			<polygon class="st2" points="-195.8,358.8 -165.5,358.8 -176,348.2 -185,348.2 			"/>
			<polygon class="st2" points="-165.5,398 -195.8,398 -185,408.6 -176,408.6 			"/>
			<polygon class="st2" points="-161,363.3 -161,393.5 -150.3,382.9 -150.3,373.9 			"/>
			<polygon class="st2" points="-200.2,393.5 -200.2,363.3 -210.8,373.9 -210.8,382.9 			"/>
			<rect x="-190" y="413.9" class="st2" width="18.8" height="7.8"/>
			<line class="st0" x1="-136" y1="587.3" x2="-173.8" y2="426.5"/>
			<line class="st0" x1="-160.7" y1="503.4" x2="-178.8" y2="426.5"/>
			<line class="st0" x1="-226.8" y1="587.3" x2="-188.8" y2="426.5"/>
			<line class="st0" x1="-202" y1="503.4" x2="-183.8" y2="426.5"/>
		</g>
		<g>
			<rect x="-633" y="389.2" class="st3" width="46.2" height="31.6"/>
			<polyline class="st2" points="-567.6,587.2 -582.2,439.3 -582.2,420.6 			"/>
			<path class="st2" d="M-586.9,420.8V440c0,0.1,0,0.3,0,0.4c-0.2,12.6-10.5,22.7-23.1,22.7s-22.9-10.1-23.1-22.7c0-0.1,0-0.3,0-0.4
				v-19.2H-586.9z"/>
			<polyline class="st2" points="-652.6,587.2 -641.7,476.3 -637.9,439.3 -637.9,420.8 -637.9,420.6 			"/>
			<polyline class="st2" points="-609.9,463.1 -609.9,476.3 -609.9,531.9 -609.9,587.2 			"/>
			<line class="st2" x1="-609.9" y1="421.1" x2="-609.9" y2="464.2"/>
			<polyline class="st2" points="-633.1,389.2 -609.9,366 -586.8,389.2 			"/>
			<line class="st2" x1="-641.8" y1="476.3" x2="-578.2" y2="476.3"/>
			<line class="st2" x1="-646.9" y1="531.9" x2="-573.2" y2="531.9"/>
			<polyline class="st2" points="-586.8,420.8 -582.2,420.8 -578.2,420.8 			"/>
			<polyline class="st2" points="-641.8,420.8 -637.9,420.8 -633.1,420.8 			"/>
		</g>
		<g>
			<polyline class="st2" points="-468.6,405.6 -419.9,357 -371.3,405.6 			"/>
			<polyline class="st2" points="-466.4,407.7 -419.9,361.3 -373.6,407.7 			"/>
			<line class="st2" x1="-377.1" y1="432.9" x2="-377.1" y2="404.5"/>
			<line class="st2" x1="-462.6" y1="432.6" x2="-462.6" y2="404.3"/>
			<polygon class="st2" points="-479.7,432.6 -360.2,432.6 -278.8,514 -278.8,587.2 -561.2,587.2 -561.2,514.1 			"/>
			<g>
				<rect x="-492.1" y="518.9" class="st2" width="37.9" height="68.3"/>
				<line class="st2" x1="-491.9" y1="587.2" x2="-454.2" y2="518.9"/>
				<line class="st2" x1="-454.2" y1="587.2" x2="-491.9" y2="518.9"/>
			</g>
			<g>
				<rect x="-440.1" y="457.6" class="st2" width="20.2" height="36.5"/>
				<line class="st2" x1="-440.2" y1="494.1" x2="-419.9" y2="457.6"/>
				<line class="st2" x1="-419.9" y1="494.1" x2="-440.2" y2="457.6"/>
			</g>
			<g>
				<rect x="-419.9" y="457.6" class="st2" width="20.2" height="36.5"/>
				<line class="st2" x1="-419.9" y1="494.1" x2="-399.8" y2="457.6"/>
				<line class="st2" x1="-399.8" y1="494.1" x2="-419.9" y2="457.6"/>
			</g>
			<g>
				<rect x="-385.8" y="518.9" class="st2" width="37.9" height="68.3"/>
				<line class="st2" x1="-385.8" y1="587.2" x2="-347.9" y2="518.9"/>
				<line class="st2" x1="-347.9" y1="587.2" x2="-385.8" y2="518.9"/>
			</g>
			<rect x="-454.1" y="518.9" class="st2" width="68.3" height="68.3"/>
			<rect x="-329.4" y="518.9" class="st2" width="19.2" height="29.5"/>
			<rect x="-530.3" y="518.9" class="st2" width="19.2" height="29.5"/>
			<circle class="st2" cx="-419.9" cy="402.8" r="7.1"/>
			<line class="st2" x1="-319.8" y1="548.3" x2="-319.8" y2="518.9"/>
			<line class="st2" x1="-520.8" y1="548.3" x2="-520.8" y2="518.9"/>
			<polygon class="st2" points="-478.1,435.8 -361.8,435.8 -278.8,518.8 -278.8,587.2 -561.2,587.2 -561.2,518.9 			"/>
		</g>
		<path class="st3" d="M-444.8,587.4c-105.1,0-139.3-28.8-244.3-91.8c-56.6-34-84.3-34.2-127.6-34.2l-145.8,1.5
			c0,0-72.3-7-167.3,16.1l7.1,108.2h678.2"/>
		<g>
			<rect x="186.5" y="510.7" class="st2" width="123.5" height="76.5"/>
			<circle class="st2" cx="209.8" cy="563" r="17.5"/>
			<circle class="st2" cx="209.8" cy="563" r="8.9"/>
			<circle class="st2" cx="287.8" cy="563" r="17.5"/>
			<circle class="st2" cx="287.8" cy="563" r="8.9"/>
			<circle class="st2" cx="253.9" cy="564" r="3.6"/>
			<circle class="st2" cx="243.1" cy="564" r="3.6"/>
			<circle class="st2" cx="196" cy="521.4" r="3.7"/>
			<rect x="203.6" y="516.7" class="st2" width="100.6" height="8.4"/>
			<rect x="231.5" y="537.6" class="st2" width="33.7" height="44"/>
			<rect x="236.4" y="557.5" class="st2" width="24.2" height="13.1"/>
			<line class="st2" x1="231.5" y1="575.1" x2="264.8" y2="575.1"/>
			<line class="st2" x1="240" y1="581.9" x2="240" y2="575.1"/>
			<line class="st2" x1="235.8" y1="581.9" x2="235.8" y2="575.1"/>
			<line class="st2" x1="231.5" y1="581.9" x2="231.5" y2="575.1"/>
			<line class="st2" x1="265.2" y1="581.2" x2="265.2" y2="575.1"/>
			<line class="st2" x1="261" y1="581.2" x2="261" y2="575.1"/>
			<line class="st2" x1="256.9" y1="581.2" x2="256.9" y2="575.1"/>
			<line class="st2" x1="252.6" y1="581.2" x2="252.6" y2="575.1"/>
			<line class="st2" x1="248.5" y1="581.2" x2="248.5" y2="575.1"/>
			<line class="st2" x1="244.2" y1="581.2" x2="244.2" y2="575.1"/>
			<line class="st2" x1="190" y1="531.9" x2="305.4" y2="531.9"/>
			<polyline class="st2" points="207,522.6 210.5,519.1 214,522.6 217.5,519.1 221,522.6 224.5,519.1 228,522.6 231.5,519.1 
				235,522.6 238.5,519.1 242,522.6 245.5,519.1 249,522.6 252.5,519.1 256,522.6 259.5,519.1 263,522.6 266.5,519.1 270,522.6 
				273.5,519.1 277,522.6 280.5,519.1 283.9,522.6 287.4,519.1 290.9,522.6 294.2,519.2 297.6,522.6 301.1,519.1 			"/>
			<polyline class="st2" points="255.2,458.3 285.5,488.5 285.5,491.2 290.4,491.2 290.4,496.1 295.4,496.1 295.4,501 300.2,501 
				300.2,506 305.2,506 305.2,510.9 			"/>
			<circle class="st2" cx="252.9" cy="455.9" r="3.6"/>
		</g>
		<g>
			<polygon class="st1" points="82.5,484.6 82.5,502.7 82.5,502.7 96.5,516.8 96.5,587.2 53.5,587.2 53.5,516.8 67.7,502.7 
				67.7,502.7 67.7,484.6 			"/>
			<rect x="60.7" y="523" class="st2" width="29.1" height="56.6"/>
			<path class="st3" d="M64.6,491.5c0,0.8,0.6,1.4,1.4,1.4h18c0.8,0,1.4-0.6,1.4-1.4s-0.6-1.4-1.4-1.4H66
				C65.2,490.1,64.6,490.7,64.6,491.5z"/>
			<line class="st2" x1="90.8" y1="531.4" x2="96.5" y2="531.4"/>
			<line class="st2" x1="53.5" y1="531.4" x2="60.7" y2="531.4"/>
		</g>
		<g>
			<polygon class="st2" points="155.7,452.3 153.2,465.7 130,465.7 127.8,452.3 			"/>
			<rect x="116" y="523.4" class="st2" width="51.9" height="42.2"/>
			<path class="st2" d="M118.2,495.1h12.5v-18.5h-2.9v-10.9h27.9v10.9h-2.9v18.5h12.5c5.8,0,10.5,4.7,10.5,10.5v81.6h-68v-81.6
				C107.8,499.9,112.5,495.2,118.2,495.1z"/>
			<path class="st4" d="M119.8,512.4c0,1.9,1.5,3.4,3.4,3.4s3.4-1.5,3.4-3.4c0-1.9-3.3-7.3-3.4-7.3
				C123.2,505.1,119.8,510.5,119.8,512.4z"/>
			<line class="st2" x1="130.7" y1="487.6" x2="152.8" y2="487.6"/>
		</g>
		<line class="st2" x1="-889.7" y1="587.2" x2="417.2" y2="587.2"/>
		<g id="chicken_1_">
			<path class="st3" d="M-76.2,535l-0.1,0.2c0,17.8,14.4,32.2,32.2,32.2c15.8,0,28.9-11.4,31.6-26.4c0.2,0,0.3,0,0.5,0
				c1.4-0.2,2.4-1.6,2.2-3c-0.2-1.2-1.1-2.1-2.3-2.2l0,0c0.1,0,0.2,0,0.3,0c1.8-0.2,3.1-2,2.8-3.8c-0.3-1.7-1.6-2.8-3.2-2.9l0,0
				c0.1,0,0.2,0,0.3,0c2.2-0.3,3.7-2.5,3.4-4.7c-0.3-2-1.9-3.4-3.8-3.5l0,0c0,0-13.5-0.8-18.6,14.5h-15.5
				c-16.8,0-16.2-13.5-16.4-13.5l0,0c-0.9-6.1-6.4-10.7-12.8-10.1c-5.5,0.6-10.1,5-10.6,10.6C-86.8,528.7-82.3,534.2-76.2,535z"/>
			<circle class="st2" cx="-87.2" cy="514.8" r="2.7"/>
			<circle class="st2" cx="-83.2" cy="509.7" r="3.9"/>
			<circle class="st2" cx="-75" cy="506.3" r="4.9"/>
			<polyline class="st2" points="-85.5,527.1 -94.5,523 -85.7,519 			"/>
			<circle cx="-79.2" cy="520.9" r="1.4"/>
			<polyline class="st0" points="-49.2,585.4 -40,585.4 -40,567.2 			"/>
			<polyline class="st0" points="-55.8,585.4 -46.5,585.4 -46.5,567.2 			"/>
		</g>
		<g id="chicken_x5F_eat_1_">
			<polyline class="st0" points="-49.7,585.4 -40.5,585.4 -40.5,567.2 			"/>
			<polyline class="st0" points="-56.2,585.4 -47,585.4 -47,567.2 			"/>
			<path class="st3" d="M-78.3,561.5l0.1,0.2c12.6,12.6,32.9,12.6,45.5,0c11.2-11.1,12.4-28.5,3.7-41c0.1-0.1,0.2-0.2,0.3-0.3
				c0.8-1.2,0.6-2.8-0.6-3.7c-1-0.7-2.3-0.6-3.2,0.1l0,0c0.1-0.1,0.1-0.2,0.2-0.3c1.1-1.5,0.8-3.6-0.7-4.7c-1.4-1-3.1-0.8-4.3,0.2
				l0,0c0.1-0.1,0.1-0.2,0.2-0.3c1.3-1.9,0.9-4.5-0.9-5.8c-1.5-1.2-3.7-1-5.1,0.2l0,0c0,0-10.1,9-2.9,23.4L-57,540.4
				c-11.9,11.9-21,2-21.1,2.1l0,0c-5-3.7-12.1-3.1-16.2,1.9c-3.5,4.3-3.5,10.7,0,15C-90.2,564.4-83.2,565.1-78.3,561.5z"/>
			<circle class="st2" cx="-100.3" cy="554.8" r="2.7"/>
			<circle class="st2" cx="-101.2" cy="548.3" r="3.9"/>
			<circle class="st2" cx="-97.8" cy="540.2" r="4.9"/>
			<polyline class="st2" points="-90.3,562.3 -99.8,565.7 -96.3,556.7 			"/>
			<circle cx="-90.3" cy="553.4" r="1.4"/>
		</g>
		<g>
			<g>
				<polygon class="st2" points="386.8,413.1 379.6,401.6 368.1,401.6 356.8,401.6 349.5,413.1 368.1,436.4 				"/>
				<line class="st2" x1="349.5" y1="413.1" x2="386.8" y2="413.1"/>
				<polyline class="st2" points="368.1,436.4 374.8,413.1 368.1,401.6 				"/>
				<polyline class="st2" points="368.1,436.4 361.5,413.1 368.1,401.6 				"/>
				<line class="st2" x1="356.8" y1="401.6" x2="361.5" y2="413.1"/>
			</g>
			<g>
				<path class="st3" d="M389.1,513.9c0,0,27-25.4-1.2-32.5c0,0,15.1-22.7-19.8-43c-34.9,20.3-19.8,43-19.8,43
					c-28.3,7.1-1.2,32.5-1.2,32.5c-31.9,17.7,21,33.3,21,33.3S421,531.6,389.1,513.9z"/>
				<line class="st2" x1="368.1" y1="531.6" x2="368.1" y2="495.3"/>
				<line class="st0" x1="368.1" y1="527.9" x2="368.1" y2="492.1"/>
				<line class="st2" x1="368.1" y1="586.2" x2="368.1" y2="547.2"/>
			</g>
		</g>
		<g>
			<g>
				<path class="st3" d="M-793.5,379c0,0,29.9-28.1-1.3-35.9c0,0,16.7-25.1-21.9-47.5c-38.6,22.4-21.9,47.5-21.9,47.5
					c-31.2,7.8-1.3,35.9-1.3,35.9c-35.2,19.5,23.2,36.8,23.2,36.8S-758.3,398.5-793.5,379z"/>
				<line class="st2" x1="-816.8" y1="398.5" x2="-816.8" y2="358.5"/>
				<line class="st0" x1="-816.8" y1="394.5" x2="-816.8" y2="355"/>
				<line class="st2" x1="-816.8" y1="458.9" x2="-816.8" y2="415.8"/>
			</g>
		</g>
		<g>
			<line class="st2" x1="-664.2" y1="536.9" x2="-664.2" y2="587.2"/>
			<line class="st2" x1="-673.9" y1="538.6" x2="-664.2" y2="565.6"/>
			<line class="st2" x1="-682.6" y1="543.6" x2="-664.2" y2="565.6"/>
			<line class="st2" x1="-639.4" y1="551.2" x2="-664.3" y2="565.6"/>
			<line class="st2" x1="-645.7" y1="543.6" x2="-664.2" y2="565.6"/>
			<line class="st2" x1="-654.2" y1="538.6" x2="-664.2" y2="565.6"/>
			<path class="st3" d="M-686.7,550c-0.8,0-1.6,0-2.4,0.1c-0.1,0.8-0.1,1.6-0.1,2.4c0,12.4,10.1,22.5,22.5,22.5c0.8,0,1.6,0,2.5,0
				c0-0.8,0-1.7,0-2.5C-664.2,560.1-674.2,550-686.7,550z"/>
			<path class="st3" d="M-641.7,550c0.8,0,1.6,0,2.4,0.1c0.1,0.8,0.1,1.6,0.1,2.4c0,12.4-10.1,22.5-22.5,22.5c-0.8,0-1.6,0-2.5,0
				c0-1,0-1.7,0-2.5C-664.2,560.1-654.1,550-641.7,550z"/>
			<circle class="st3" cx="-664.2" cy="536.9" r="2.1"/>
			<circle class="st3" cx="-673.9" cy="538.6" r="2.1"/>
			<circle class="st3" cx="-654.2" cy="538.6" r="2.1"/>
			<circle class="st3" cx="-645.7" cy="543.6" r="2.1"/>
			<circle class="st3" cx="-682.6" cy="543.6" r="2.1"/>
		</g>
		<g>
			<rect x="-262.6" y="465.5" class="st3" width="77.6" height="121.7"/>
			<circle class="st2" cx="-223.7" cy="500" r="22.6"/>
			<circle class="st2" cx="-223.7" cy="500" r="7.6"/>
			<circle class="st2" cx="-223.7" cy="553" r="22.6"/>
			<circle class="st2" cx="-223.7" cy="553" r="7.6"/>
			<polyline class="st2" points="-200.8,468.8 -188.3,468.8 -188.3,481.4 			"/>
			<polyline class="st2" points="-259.3,481.4 -259.3,468.8 -246.8,468.8 			"/>
			<polyline class="st2" points="-200.8,584.1 -188.3,584.1 -188.3,571.6 			"/>
			<polyline class="st2" points="-259.3,571.6 -259.3,584.1 -246.8,584.1 			"/>
		</g>
		<polygon id="play_1_" class="st3" points="252.1,553.1 243.1,547.8 252.1,542.6 		"/>
		<g>
			<line class="st2" x1="-148.2" y1="536.1" x2="-148.2" y2="586.5"/>
			<line class="st2" x1="-158" y1="537.8" x2="-148.2" y2="564.9"/>
			<line class="st2" x1="-166.8" y1="542.8" x2="-148.2" y2="564.9"/>
			<line class="st2" x1="-123.5" y1="550.5" x2="-148.5" y2="564.9"/>
			<line class="st2" x1="-129.8" y1="542.8" x2="-148.2" y2="564.9"/>
			<line class="st2" x1="-138.5" y1="537.8" x2="-148.2" y2="564.9"/>
			<path class="st3" d="M-170.8,549.2c-0.8,0-1.6,0-2.4,0.1c-0.1,0.8-0.1,1.6-0.1,2.4c0,12.4,10.1,22.5,22.5,22.5c0.8,0,1.6,0,2.5,0
				c0-0.8,0-1.7,0-2.5C-148.2,559.3-158.3,549.2-170.8,549.2z"/>
			<path class="st3" d="M-125.8,549.2c0.8,0,1.6,0,2.4,0.1c0.1,0.8,0.1,1.6,0.1,2.4c0,12.4-10.1,22.5-22.5,22.5c-0.8,0-1.6,0-2.5,0
				c0-1,0-1.7,0-2.5C-148.2,559.3-138.2,549.2-125.8,549.2z"/>
			<circle class="st3" cx="-148.2" cy="536.1" r="2.1"/>
			<circle class="st3" cx="-158" cy="537.8" r="2.1"/>
			<circle class="st3" cx="-138.5" cy="537.8" r="2.1"/>
			<circle class="st3" cx="-129.8" cy="542.8" r="2.1"/>
			<circle class="st3" cx="-166.8" cy="542.8" r="2.1"/>
		</g>
		<path id="drip1_1_" class="st4" d="M118,607.6c0,1.9,1.5,3.4,3.4,3.4s3.4-1.5,3.4-3.4c0-1.8-3.3-7.1-3.4-7.1
			C121.3,600.5,118,605.8,118,607.6z"/>
		<path id="drip3_1_" class="st4" d="M118,646.9c0,1.9,1.5,3.4,3.4,3.4s3.4-1.5,3.4-3.4c0-1.8-3.3-7.1-3.4-7.1
			C121.3,639.8,118,645.1,118,646.9z"/>
		<g>
			<path d="M162.8,542.8h-4.1v-5.1l-3.6,5.1h-3.5v-13.2h4.1v5.1l3.6-5.1h3.5V542.8z M161,541.2v-10h-0.5l-6.5,9.1v-9.1h-0.5v10h0.5
				l6.5-9.1v9.1H161z"/>
			<path d="M148.3,538.9c-0.4,0.8-0.9,1.6-1.5,2.2c-0.6,0.6-1.4,1.1-2.2,1.5c-0.9,0.3-1.7,0.5-2.7,0.5s-1.9-0.1-2.7-0.5
				c-0.8-0.4-1.6-0.9-2.2-1.5c-0.6-0.6-1.1-1.4-1.5-2.2c-0.3-0.9-0.5-1.7-0.5-2.7s0.1-1.9,0.5-2.7c0.4-0.8,0.9-1.6,1.5-2.2
				c0.6-0.6,1.4-1.1,2.2-1.5c0.9-0.3,1.7-0.5,2.7-0.5s1.9,0.1,2.7,0.5c0.8,0.4,1.6,0.9,2.2,1.5c0.6,0.6,1.1,1.4,1.5,2.2
				c0.3,0.9,0.5,1.8,0.5,2.7S148.7,538,148.3,538.9z M146.5,534.2c-0.3-0.6-0.6-1.1-1.1-1.6s-1-0.8-1.6-1.1s-1.3-0.4-2-0.4
				s-1.4,0.1-2,0.4s-1.1,0.6-1.6,1.1s-0.8,1-1.1,1.6c-0.3,0.6-0.4,1.3-0.4,2s0.1,1.4,0.4,2c0.3,0.6,0.6,1.1,1.1,1.6s1,0.8,1.6,1.1
				s1.3,0.4,2,0.4s1.4-0.1,2-0.4c0.6-0.3,1.1-0.6,1.6-1.1s0.8-1,1.1-1.6c0.3-0.6,0.4-1.3,0.4-2S146.8,534.8,146.5,534.2z
				 M140.2,540.3c-0.5-0.3-1-0.6-1.4-1c-0.4-0.4-0.8-0.9-1-1.4c-0.3-0.6-0.4-1.2-0.4-1.8c0-0.7,0.2-1.3,0.4-1.8c0.3-0.5,0.6-1,1-1.4
				c0.4-0.4,0.9-0.8,1.4-1c0.6-0.3,1.2-0.4,1.8-0.4c0.7,0,1.3,0.2,1.8,0.4c0.5,0.3,1,0.6,1.4,1c0.4,0.4,0.8,0.9,1,1.4
				c0.3,0.6,0.4,1.2,0.4,1.8c0,0.7-0.2,1.3-0.4,1.8c-0.3,0.5-0.6,1-1,1.4c-0.4,0.4-0.9,0.8-1.4,1c-0.6,0.3-1.2,0.4-1.8,0.4
				C141.2,540.7,140.7,540.6,140.2,540.3z M144.5,535.1c-0.2-0.4-0.3-0.6-0.6-0.9c-0.3-0.3-0.6-0.5-0.9-0.6
				c-0.4-0.1-0.7-0.2-1.1-0.2s-0.8,0.1-1.1,0.2c-0.4,0.2-0.6,0.3-0.9,0.6s-0.5,0.6-0.6,0.9c-0.1,0.4-0.2,0.7-0.2,1.1
				c0,0.4,0.1,0.8,0.2,1.1c0.2,0.4,0.4,0.7,0.6,0.9c0.3,0.3,0.6,0.5,0.9,0.6c0.4,0.1,0.7,0.2,1.1,0.2s0.8-0.1,1.1-0.2
				c0.4-0.2,0.7-0.4,0.9-0.6c0.3-0.3,0.5-0.6,0.6-0.9c0.1-0.4,0.2-0.7,0.2-1.1C144.7,535.8,144.6,535.5,144.5,535.1z"/>
			<path d="M132.2,542.8h-4.1v-5.1l-3.6,5.1h-3.5v-13.2h4.1v5.1l3.6-5.1h3.5V542.8z M130.5,541.2v-10H130l-6.5,9.1v-9.1H123v10h0.5
				l6.5-9.1v9.1H130.5z"/>
			<path d="M162.8,560.2h-4.2v-4.9h-2.3v4.9H152V547h4.2v4.5h2.3V547h4.2V560.2z M160.8,558.6v-10h-0.5v4.5h-5.8v-4.5H154v10h0.5v-5
				h5.8v5H160.8z"/>
			<path d="M147.8,560.2h-7.7l-1.1-3.5h2.5l-0.3-0.5c-0.3-0.7-0.6-1.3-0.9-1.8c-0.2-0.5-0.4-1-0.6-1.4c-0.2-0.4-0.3-0.8-0.4-1.1
				c-0.1-0.4-0.1-0.7-0.1-1.1c0-0.7,0.2-1.4,0.5-1.9c0.3-0.6,0.7-1,1.2-1.3c0.4-0.3,1-0.6,1.6-0.7s1.3-0.2,1.9-0.2
				c0.2,0,0.3,0,0.5,0c0.1,0,0.3,0,0.4,0c0.1,0.1,0.3,0.1,0.4,0.1c0.2,0,0.3,0.1,0.5,0.1v3.7c-0.1,0-0.2,0-0.3,0s-0.2,0-0.3,0
				s-0.2,0-0.3,0c-1.1,0-1.6,0.4-1.6,1.3c0,0.3,0,0.5,0.1,0.8c0,0.3,0.2,0.7,0.5,1.2L147.8,560.2z M141.1,558.6L141.1,558.6l3.9,0.1
				l-2.6-4.9c-0.3-0.5-0.5-0.9-0.6-1.3c-0.1-0.4-0.2-0.8-0.2-1.2c0-0.7,0.2-1.2,0.7-1.6c0.4-0.4,1-0.6,1.8-0.6h0.1h0.1h0.1v-0.5
				h-0.1h-0.1h-0.1c-0.9,0-1.6,0.3-2.2,0.7c-0.5,0.5-0.8,1.1-0.8,2c0,0.4,0,0.9,0.2,1.3s0.4,0.8,0.6,1.3l2.2,4.2H141L141.1,558.6
				L141.1,558.6z"/>
			<path d="M134.2,556.3c-0.4,0.8-0.9,1.6-1.5,2.2s-1.4,1.1-2.2,1.5c-0.9,0.3-1.7,0.5-2.7,0.5s-1.9-0.1-2.7-0.5s-1.6-0.9-2.2-1.5
				s-1.1-1.4-1.5-2.2c-0.3-0.9-0.5-1.7-0.5-2.7s0.1-1.9,0.5-2.7s0.9-1.6,1.5-2.2s1.3-1.2,2.2-1.5s1.7-0.5,2.7-0.5s1.9,0.1,2.7,0.5
				s1.6,0.9,2.2,1.5s1.1,1.4,1.5,2.2c0.3,0.9,0.5,1.8,0.5,2.7C134.7,554.6,134.5,555.5,134.2,556.3z M132.3,551.6
				c-0.3-0.6-0.6-1.1-1.1-1.6s-1-0.8-1.6-1.1s-1.3-0.4-2-0.4s-1.4,0.1-2,0.4s-1.1,0.6-1.6,1.1s-0.8,1-1.1,1.6s-0.4,1.3-0.4,2
				s0.1,1.4,0.4,2s0.6,1.1,1.1,1.6s1,0.8,1.6,1.1s1.3,0.4,2,0.4s1.4-0.1,2-0.4s1.1-0.6,1.6-1.1s0.8-1,1.1-1.6s0.4-1.3,0.4-2
				S132.7,552.3,132.3,551.6z M126,557.8c-0.5-0.3-1-0.6-1.4-1s-0.8-0.9-1-1.4c-0.3-0.6-0.4-1.2-0.4-1.8c0-0.7,0.2-1.3,0.4-1.8
				c0.3-0.5,0.6-1,1-1.4s0.9-0.8,1.4-1c0.6-0.3,1.2-0.4,1.8-0.4c0.7,0,1.3,0.2,1.8,0.4c0.5,0.3,1,0.6,1.4,1s0.8,0.9,1,1.4
				c0.3,0.6,0.4,1.2,0.4,1.8c0,0.7-0.2,1.3-0.4,1.8c-0.3,0.5-0.6,1-1,1.4s-0.9,0.8-1.4,1c-0.6,0.3-1.2,0.4-1.8,0.4
				C127,558.2,126.5,558,126,557.8z M130.2,552.5c-0.2-0.4-0.3-0.6-0.6-0.9s-0.5-0.5-0.9-0.6s-0.7-0.2-1.1-0.2s-0.7,0-1.1,0.2
				s-0.6,0.3-0.9,0.6s-0.5,0.6-0.6,0.9c-0.1,0.4-0.2,0.7-0.2,1.1s0.1,0.8,0.2,1.1c0.2,0.4,0.4,0.7,0.6,0.9c0.3,0.3,0.5,0.5,0.9,0.6
				s0.7,0.2,1.1,0.2s0.7,0,1.1-0.2s0.7-0.4,0.9-0.6c0.3-0.3,0.5-0.6,0.6-0.9c0.1-0.4,0.2-0.7,0.2-1.1S130.3,552.9,130.2,552.5z"/>
		</g>
		<g>
			<path class="st3" d="M-503.9,634c0.8,0,1.6,0,2.4-0.1c0.1-0.8,0.1-1.6,0.1-2.4c0-12.4-10.1-22.5-22.5-22.5c-0.8,0-1.6,0-2.5,0
				c0,0.8,0,1.7,0,2.5C-526.4,623.9-516.3,634-503.9,634z"/>
			<path class="st3" d="M-528.9,608.2c0.8-0.2,1.5-0.6,2.2-0.9c-0.2-0.8-0.4-1.5-0.7-2.3c-4.2-11.7-17.1-17.8-28.8-13.6
				c-0.8,0.2-1.6,0.5-2.4,0.8c0.2,0.8,0.5,1.6,0.8,2.4C-553.7,606.3-540.8,612.4-528.9,608.2z"/>
			<path class="st3" d="M-526.4,611.5c0-0.8,0-1.6-0.1-2.4c-0.8-0.1-1.6-0.1-2.4-0.1c-12.4,0-22.5,10.1-22.5,22.5c0,0.8,0,1.6,0,2.5
				c0.8,0,1.7,0,2.5,0C-536.6,634-526.4,623.9-526.4,611.5z"/>
			<path class="st2" d="M-578.3,559.9c28.6,0,51.9,23.2,51.9,51.9"/>
			<line class="st0" x1="-548.3" y1="597.1" x2="-526.8" y2="607.3"/>
			<polyline class="st0" points="-543.2,625.6 -543.2,623.3 -538.2,623.3 -538.2,618.6 -533.4,618.6 -533.4,614.1 -530.9,614.1 
				-526.4,609 -508.8,626.7 			"/>
		</g>
		<circle class="st2" cx="-526.1" cy="634" r="3.3"/>
		<circle class="st2" cx="-535.4" cy="643.4" r="3.3"/>
		<circle class="st2" cx="-526.1" cy="651.2" r="3.3"/>
		<g>
			<g>
				<path class="st3" d="M-454.8,584.2c0.6-0.6,1.1-1.2,1.6-1.8c-0.5-0.6-1-1.2-1.6-1.8c-8.8-8.8-23-8.8-31.8,0
					c-0.6,0.6-1.2,1.2-1.8,1.8c0.6,0.6,1.2,1.2,1.8,1.8C-477.9,593-463.7,593-454.8,584.2z"/>
				<path class="st3" d="M-490.8,583.7c0.3-0.7,0.6-1.5,0.9-2.2c-0.7-0.4-1.4-0.8-2.1-1.1c-11.3-5.3-24.7-0.5-30,10.7
					c-0.4,0.8-0.7,1.5-1.1,2.3c0.8,0.4,1.6,0.8,2.3,1.1C-509.6,599.8-496.2,595-490.8,583.7z"/>
				<path class="st3" d="M-486.7,584.2c-0.6-0.6-1.2-1.1-1.8-1.6c-0.6,0.5-1.2,1-1.8,1.6c-8.8,8.8-8.8,23,0,31.8
					c0.6,0.6,1.2,1.2,1.8,1.8c0.6-0.6,1.2-1.2,1.8-1.8C-477.9,607.3-477.9,593-486.7,584.2z"/>
				<path class="st2" d="M-543.9,573.6c19-8.3,42-4.6,57.5,10.9"/>
				<line class="st0" x1="-512.3" y1="589.6" x2="-489.9" y2="581.6"/>
				<polyline class="st0" points="-488.7,606.1 -490.2,604.5 -486.7,600.8 -489.9,597.5 -486.7,594.2 -489.8,591 -488.1,589.3 
					-488.4,582.4 -463.4,582.4 				"/>
			</g>
			<circle class="st2" cx="-470.4" cy="599.8" r="3.3"/>
			<path class="st2" d="M-469.2,614.3c4-4,0.7-4,4.7,0c1.3,1.3,1.3,3.4,0,4.7s-3.4,1.3-4.7,0C-470.4,617.7-470.4,615.5-469.2,614.3z
				"/>
			<circle class="st2" cx="-480.1" cy="622.2" r="3.3"/>
		</g>
		<g>
			<path d="M-596.6,414.9h-4.2l-1.7-5.1l-1.7,5.1h-4.2l-5.6-16.9h5.7l2,5.9l2-5.9h3.7l2,5.9l2-5.9h5.7L-596.6,414.9z M-598.2,412.9
				l4.2-12.9h-0.7l-3.9,11.7l-3.7-11.7l-3.7,11.7l-3.9-11.7h-0.7l4.2,12.9h0.6l3.4-10.6l3.4,10.6H-598.2z"/>
			<path d="M-615.2,398l0,17.1h-6.9c-1,0-1.8-0.2-2.6-0.4c-0.8-0.3-1.5-0.6-2-1.1s-0.9-1-1.2-1.7s-0.4-1.4-0.4-2.2
				c0-0.7,0.1-1.3,0.3-1.8s0.4-0.9,0.7-1.2c0.3-0.4,0.6-0.7,1-0.9c-0.2-0.2-0.4-0.5-0.6-0.8c-0.1-0.3-0.3-0.6-0.4-1
				s-0.2-0.9-0.2-1.4c0-0.8,0.1-1.4,0.4-2c0.3-0.5,0.7-1,1.2-1.4s1.1-0.7,1.8-0.9c0.7-0.2,1.5-0.3,2.3-0.3H-615.2L-615.2,398z
				 M-621.3,412.7h3.7v-12.9h-3.7c-1.2,0-2.1,0.3-2.8,0.8s-1,1.3-1,2.4c0,0.6,0.1,1.1,0.3,1.5c0.3,0.4,0.5,0.7,0.8,0.9
				c0.3,0.3,0.7,0.5,1.1,0.6c-0.5,0.1-1,0.3-1.4,0.6s-0.7,0.6-1,1c-0.3,0.5-0.4,1-0.4,1.7c0,1.1,0.4,1.9,1.1,2.6s1.8,1,3.3,1V412.7z
				 M-621.3,405.9c-1.1,0-1.9-0.2-2.4-0.7s-0.7-1.1-0.7-1.9s0.2-1.4,0.7-1.9s1.3-0.7,2.4-0.7h3v5.2H-621.3z M-618.3,412.3l-3.1,0
				c-1.1,0-2-0.2-2.7-0.7c-0.7-0.4-1-1.2-1-2.2c0-0.5,0.1-0.9,0.3-1.3c0.2-0.4,0.5-0.7,0.8-0.9c0.4-0.2,0.8-0.4,1.2-0.5
				c0.5-0.1,1-0.2,1.5-0.2h3V412.3L-618.3,412.3z M-620.9,404.3h0.6V402h-0.6c-0.9,0-1.3,0.4-1.3,1.2
				C-622.2,404-621.8,404.3-620.9,404.3z M-621.1,410.9h0.6V408h-0.6c-1.3,0-1.9,0.5-1.9,1.5s0.6,1.5,1.9,1.5V410.9z"/>
		</g>
		<circle cx="-610.1" cy="380.2" r="1.8"/>
		<path id="drip2_1_" class="st2" d="M129.5,624.9c4-4,0.7-4,4.7,0c1.3,1.3,1.3,3.4,0,4.7s-3.4,1.3-4.7,0
			C128,628.3,128,626.2,129.5,624.9z"/>
		<polygon id="bolt_1_" class="st3" points="-97.5,622.1 -109.7,625.2 -91.5,636.8 -103.8,639.9 -68.2,659.8 -87.7,642 -75.8,639 
			-93.5,627 -81.5,624.3 -119,601.5 		"/>
		<g id="music-note2_1_">
			<circle class="st2" cx="149" cy="371.2" r="6.9"/>
			<circle class="st2" cx="121.2" cy="371.2" r="6.9"/>
			<polyline class="st2" points="142,371.2 142,339.3 142,339.3 138.5,335.8 135.2,339.2 131.8,335.8 128.2,339.3 124.8,335.8 
				121.2,339.3 117.8,335.8 114.2,339.3 114.2,339.3 114.2,371.2 			"/>
		</g>
		<g id="music-note4_1_">
			<circle class="st2" cx="-6.5" cy="334.8" r="6.9"/>
			<circle class="st2" cx="-34.2" cy="334.8" r="6.9"/>
			<polyline class="st2" points="-13.3,334.8 -13.3,302.9 -13.3,302.9 -16.8,299.4 -20.2,302.8 -23.7,299.4 -27.2,302.9 
				-30.7,299.4 -34.2,302.9 -37.7,299.4 -41.2,302.9 -41.2,302.9 -41.2,334.8 			"/>
		</g>
		<g>
			<circle class="st2" cx="205.1" cy="455.1" r="6.9"/>
			<polyline class="st2" points="198.2,455.1 198.2,423.1 198.2,423.1 194.8,419.7 191.3,423.1 187.8,419.6 184.5,423.1 			"/>
		</g>
		<g id="music-note3_1_">
			<circle class="st2" cx="53.8" cy="412.3" r="6.9"/>
			<polyline class="st2" points="46.8,412.3 46.8,380.3 46.8,380.3 43.3,376.8 40,380.2 36.5,376.8 33,380.3 			"/>
		</g>
		
			<animate  fill="freeze" xlink:href="#cloud-move" calcMode="linear" begin="click" restart="always" dur="1s" to="450" attributeName="cx" accumulate="none" additive="replace" from="50">
			</animate>
		<g id="dumstick_1_">
			<path class="st2" d="M-53.6,555.3L-65,566.7c-1.3-2-4.1-2.2-5.7-0.6c-2.7,2.8,0.1,7.4,3.8,6.1c-1.2,3.7,3.4,6.5,6.1,3.8
				c1.6-1.6,1.4-4.3-0.5-5.6L-50,559"/>
			<path class="st3" d="M-59.7,561.3l-1-7.8c0,0-0.6-7,2.6-11.8c4.7-7.3,12.6-15,18-16c8.6-1.6,14.5,2.7,16,10
				c2,9.7-10.5,20.5-16,25.7c-2.9,2.7-9,2.8-9,2.8h-7.6L-59.7,561.3z"/>
		</g>
		<g id="pop_1_">
			<line class="st2" x1="-62.5" y1="550.9" x2="-56.5" y2="550.9"/>
			<line class="st2" x1="-47" y1="535.4" x2="-47" y2="561.1"/>
			<line class="st2" x1="-58" y1="540" x2="-38.8" y2="559.2"/>
			<line class="st2" x1="-54.5" y1="558.3" x2="-36.2" y2="539.9"/>
			<line class="st2" x1="-31.5" y1="550.8" x2="-59.5" y2="550.8"/>
			<line class="st2" x1="-47" y1="566.3" x2="-47" y2="560.2"/>
			<line class="st2" x1="-36.2" y1="561.8" x2="-40.5" y2="557.5"/>
			<line class="st2" x1="-53.7" y1="557.5" x2="-58" y2="561.8"/>
		</g>
		<circle id="bass1_1_" class="st2" cx="-223.7" cy="500" r="19.3"/>
		<circle id="bass2_1_" class="st2" cx="-223.7" cy="553" r="19.3"/>
		<circle id="stereo1_1_" class="st2" cx="287.8" cy="563" r="13.4"/>
		<circle class="st2" cx="209.7" cy="563" r="13.4"/>
	</g>
</g>
<g id="Layer_1_3_">
	<g>
		<g>
			<line class="st0" x1="2403.8" y1="515.1" x2="2403.8" y2="585.4"/>
			<line class="st0" x1="2399.4" y1="585.4" x2="2399.4" y2="515.1"/>
			<line class="st0" x1="2440.6" y1="463.6" x2="2403.8" y2="515.1"/>
			<line class="st0" x1="2362.6" y1="463.6" x2="2399.4" y2="515.1"/>
			<path class="st1" d="M2408.9,584.9c0-4.1-3.3-7.4-7.4-7.4c-4.1,0-7.4,3.3-7.4,7.4"/>
			<line class="st0" x1="2368.6" y1="585.4" x2="2434.6" y2="585.4"/>
			<line class="st0" x1="2399.3" y1="515.1" x2="2403.8" y2="515.1"/>
			<path class="st0" d="M2371.6,476.1l2.6,2.6c1.3,1.4,3.5,1.4,4.9,0l0.2-0.2c1.3-1.4,3.5-1.4,4.9,0l0.1,0.1c1.3,1.4,3.5,1.4,4.9,0
				l0,0c1.3-1.4,3.5-1.4,4.9,0l0,0c1.3,1.4,3.5,1.4,4.9,0l0.1-0.1c1.3-1.4,3.5-1.4,4.9,0l0.2,0.2c1.3,1.4,3.5,1.4,4.9,0l0.1-0.1
				c1.3-1.4,3.5-1.4,4.9,0l0,0c1.3,1.4,3.5,1.4,4.9,0l0.1-0.1c1.3-1.4,3.5-1.4,4.9,0l0.1,0.1c1.3,1.4,3.5,1.4,4.9,0l2.6-2.6"/>
		</g>
		<g>
			<line class="st0" x1="1656.2" y1="352.1" x2="1665.2" y2="336.5"/>
			<g>
				<rect x="1650.8" y="411.3" class="st2" width="19.1" height="7.9"/>
				<line class="st0" x1="1705.4" y1="586.8" x2="1667.2" y2="424"/>
				<line class="st0" x1="1680.4" y1="501.9" x2="1662" y2="424"/>
				<line class="st0" x1="1613.4" y1="586.8" x2="1651.8" y2="424"/>
				<line class="st0" x1="1638.5" y1="501.9" x2="1656.9" y2="424"/>
				
					<rect x="1641.5" y="368.8" transform="matrix(-0.862 -0.5069 0.5069 -0.862 2908.6653 1556.4095)" class="st2" width="49.4" height="27"/>
				<line class="st0" x1="1626.2" y1="403.3" x2="1635.3" y2="387.7"/>
				<circle class="st0" cx="1660.2" cy="404.2" r="2.7"/>
			</g>
		</g>
		<g>
			<rect x="2173.9" y="363.3" class="st2" width="30.2" height="30.2"/>
			<circle class="st2" cx="2189.1" cy="378.4" r="10.6"/>
			<polygon class="st2" points="2173.9,358.8 2204.1,358.8 2193.6,348.2 2184.6,348.2 			"/>
			<polygon class="st2" points="2204.1,398 2173.9,398 2184.6,408.6 2193.6,408.6 			"/>
			<polygon class="st2" points="2208.6,363.3 2208.6,393.5 2219.2,382.9 2219.2,373.9 			"/>
			<polygon class="st2" points="2169.4,393.5 2169.4,363.3 2158.9,373.9 2158.9,382.9 			"/>
			<rect x="2179.6" y="413.9" class="st2" width="18.8" height="7.8"/>
			<line class="st0" x1="2233.6" y1="587.3" x2="2195.8" y2="426.5"/>
			<line class="st0" x1="2208.9" y1="503.4" x2="2190.8" y2="426.5"/>
			<line class="st0" x1="2142.8" y1="587.3" x2="2180.8" y2="426.5"/>
			<line class="st0" x1="2167.6" y1="503.4" x2="2185.8" y2="426.5"/>
		</g>
		<g>
			<rect x="1736.6" y="389.2" class="st3" width="46.2" height="31.6"/>
			<polyline class="st2" points="1802,587.2 1787.4,439.3 1787.4,420.6 			"/>
			<path class="st2" d="M1782.7,420.8V440c0,0.1,0,0.3,0,0.4c-0.2,12.6-10.5,22.7-23.1,22.7s-22.9-10.1-23.1-22.7c0-0.1,0-0.3,0-0.4
				v-19.2H1782.7z"/>
			<polyline class="st2" points="1717,587.2 1727.9,476.3 1731.7,439.3 1731.7,420.8 1731.7,420.6 			"/>
			<polyline class="st2" points="1759.7,463.1 1759.7,476.3 1759.7,531.9 1759.7,587.2 			"/>
			<line class="st2" x1="1759.7" y1="421.1" x2="1759.7" y2="464.2"/>
			<polyline class="st2" points="1736.5,389.2 1759.7,366 1782.8,389.2 			"/>
			<line class="st2" x1="1727.8" y1="476.3" x2="1791.3" y2="476.3"/>
			<line class="st2" x1="1722.7" y1="531.9" x2="1796.4" y2="531.9"/>
			<polyline class="st2" points="1782.8,420.8 1787.4,420.8 1791.3,420.8 			"/>
			<polyline class="st2" points="1727.8,420.8 1731.7,420.8 1736.5,420.8 			"/>
		</g>
		<g>
			<polyline class="st2" points="1901,405.6 1949.7,357 1998.2,405.6 			"/>
			<polyline class="st2" points="1903.2,407.7 1949.7,361.3 1996,407.7 			"/>
			<line class="st2" x1="1992.5" y1="432.9" x2="1992.5" y2="404.5"/>
			<line class="st2" x1="1907" y1="432.6" x2="1907" y2="404.3"/>
			<polygon class="st2" points="1889.9,432.6 2009.3,432.6 2090.8,514 2090.8,587.2 1808.4,587.2 1808.4,514.1 			"/>
			<g>
				<rect x="1877.5" y="518.9" class="st2" width="37.9" height="68.3"/>
				<line class="st2" x1="1877.7" y1="587.2" x2="1915.4" y2="518.9"/>
				<line class="st2" x1="1915.4" y1="587.2" x2="1877.7" y2="518.9"/>
			</g>
			<g>
				<rect x="1929.5" y="457.6" class="st2" width="20.2" height="36.5"/>
				<line class="st2" x1="1929.4" y1="494.1" x2="1949.7" y2="457.6"/>
				<line class="st2" x1="1949.7" y1="494.1" x2="1929.4" y2="457.6"/>
			</g>
			<g>
				<rect x="1949.7" y="457.6" class="st2" width="20.2" height="36.5"/>
				<line class="st2" x1="1949.7" y1="494.1" x2="1969.8" y2="457.6"/>
				<line class="st2" x1="1969.8" y1="494.1" x2="1949.7" y2="457.6"/>
			</g>
			<g>
				<rect x="1983.8" y="518.9" class="st2" width="37.9" height="68.3"/>
				<line class="st2" x1="1983.8" y1="587.2" x2="2021.7" y2="518.9"/>
				<line class="st2" x1="2021.7" y1="587.2" x2="1983.8" y2="518.9"/>
			</g>
			<rect x="1915.5" y="518.9" class="st2" width="68.3" height="68.3"/>
			<rect x="2040.2" y="518.9" class="st2" width="19.2" height="29.5"/>
			<rect x="1839.2" y="518.9" class="st2" width="19.2" height="29.5"/>
			<circle class="st2" cx="1949.7" cy="402.8" r="7.1"/>
			<line class="st2" x1="2049.8" y1="548.3" x2="2049.8" y2="518.9"/>
			<line class="st2" x1="1848.8" y1="548.3" x2="1848.8" y2="518.9"/>
			<polygon class="st2" points="1891.5,435.8 2007.8,435.8 2090.8,518.8 2090.8,587.2 1808.4,587.2 1808.4,518.9 			"/>
		</g>
		<path class="st3" d="M1544.3,587.2H1925"/>
		<path class="st3" d="M1924.8,587.4c-105.1,0-139.3-28.8-244.3-91.8c-56.6-34-84.3-34.2-127.6-34.2l-19.4,0.2l-53.5,125.6h1306.9"
			/>
		<g>
			<rect x="2556.1" y="510.7" class="st2" width="123.5" height="76.5"/>
			<circle class="st2" cx="2579.3" cy="563" r="17.5"/>
			<circle class="st2" cx="2579.3" cy="563" r="8.9"/>
			<circle class="st2" cx="2657.3" cy="563" r="17.5"/>
			<circle class="st2" cx="2657.3" cy="563" r="8.9"/>
			<circle class="st2" cx="2623.4" cy="564" r="3.6"/>
			<circle class="st2" cx="2612.8" cy="564" r="3.6"/>
			<circle class="st2" cx="2565.6" cy="521.4" r="3.7"/>
			<rect x="2573.2" y="516.7" class="st2" width="100.6" height="8.4"/>
			<rect x="2601.1" y="537.6" class="st2" width="33.7" height="44"/>
			<rect x="2606.1" y="557.5" class="st2" width="24.2" height="13.1"/>
			<line class="st2" x1="2601.1" y1="575.1" x2="2634.3" y2="575.1"/>
			<line class="st2" x1="2609.6" y1="581.9" x2="2609.6" y2="575.1"/>
			<line class="st2" x1="2605.3" y1="581.9" x2="2605.3" y2="575.1"/>
			<line class="st2" x1="2601.1" y1="581.9" x2="2601.1" y2="575.1"/>
			<line class="st2" x1="2634.8" y1="581.2" x2="2634.8" y2="575.1"/>
			<line class="st2" x1="2630.6" y1="581.2" x2="2630.6" y2="575.1"/>
			<line class="st2" x1="2626.4" y1="581.2" x2="2626.4" y2="575.1"/>
			<line class="st2" x1="2622.2" y1="581.2" x2="2622.2" y2="575.1"/>
			<line class="st2" x1="2618.1" y1="581.2" x2="2618.1" y2="575.1"/>
			<line class="st2" x1="2613.8" y1="581.2" x2="2613.8" y2="575.1"/>
			<line class="st2" x1="2559.6" y1="531.9" x2="2674.9" y2="531.9"/>
			<polyline class="st2" points="2576.6,522.6 2580.1,519.1 2583.6,522.6 2587.1,519.1 2590.6,522.6 2594.1,519.1 2597.6,522.6 
				2601.1,519.1 2604.6,522.6 2608.1,519.1 2611.6,522.6 2615.1,519.1 2618.6,522.6 2622.1,519.1 2625.6,522.6 2629.1,519.1 
				2632.6,522.6 2636.1,519.1 2639.6,522.6 2643.1,519.1 2646.6,522.6 2650.1,519.1 2653.4,522.6 2656.9,519.1 2660.4,522.6 
				2663.8,519.2 2667.2,522.6 2670.8,519.1 			"/>
			<polyline class="st2" points="2624.8,458.3 2655.1,488.5 2655.1,491.2 2659.9,491.2 2659.9,496.1 2664.9,496.1 2664.9,501 
				2669.8,501 2669.8,506 2674.8,506 2674.8,510.9 			"/>
			<circle class="st2" cx="2622.4" cy="455.9" r="3.6"/>
		</g>
		<g>
			<polygon class="st1" points="2452.1,484.6 2452.1,502.7 2452.1,502.7 2466.1,516.8 2466.1,587.2 2423.1,587.2 2423.1,516.8 
				2437.2,502.7 2437.2,502.7 2437.2,484.6 			"/>
			<rect x="2430.2" y="523" class="st2" width="29.1" height="56.6"/>
			<path class="st3" d="M2434.2,491.5c0,0.8,0.6,1.4,1.4,1.4h18c0.8,0,1.4-0.6,1.4-1.4s-0.6-1.4-1.4-1.4h-18
				C2434.8,490.1,2434.2,490.7,2434.2,491.5z"/>
			<line class="st2" x1="2460.4" y1="531.4" x2="2466.1" y2="531.4"/>
			<line class="st2" x1="2423.1" y1="531.4" x2="2430.2" y2="531.4"/>
		</g>
		<g>
			<polygon class="st2" points="2525.2,452.3 2522.8,465.7 2499.6,465.7 2497.3,452.3 			"/>
			<rect x="2485.6" y="523.4" class="st2" width="51.9" height="42.2"/>
			<path class="st2" d="M2487.8,495.1h12.5v-18.5h-2.9v-10.9h27.9v10.9h-2.9v18.5h12.5c5.8,0,10.5,4.7,10.5,10.5v81.6h-68v-81.6
				C2477.3,499.9,2482.1,495.2,2487.8,495.1z"/>
			<path class="st4" d="M2489.3,512.4c0,1.9,1.5,3.4,3.4,3.4c1.9,0,3.4-1.5,3.4-3.4c0-1.9-3.3-7.3-3.4-7.3
				C2492.8,505.1,2489.3,510.5,2489.3,512.4z"/>
			<line class="st2" x1="2500.2" y1="487.6" x2="2522.3" y2="487.6"/>
		</g>
		<g id="chicken_2_">
			<path class="st3" d="M2293.4,535l-0.1,0.2c0,17.8,14.4,32.2,32.2,32.2c15.8,0,28.9-11.4,31.6-26.4c0.2,0,0.3,0,0.5,0
				c1.4-0.2,2.4-1.6,2.2-3c-0.2-1.2-1.1-2.1-2.3-2.2l0,0c0.1,0,0.2,0,0.3,0c1.8-0.2,3.1-2,2.8-3.8c-0.3-1.7-1.6-2.8-3.2-2.9l0,0
				c0.1,0,0.2,0,0.3,0c2.2-0.3,3.7-2.5,3.4-4.7c-0.3-2-1.9-3.4-3.8-3.5l0,0c0,0-13.5-0.8-18.6,14.5h-15.5
				c-16.8,0-16.2-13.5-16.4-13.5l0,0c-0.9-6.1-6.4-10.7-12.8-10.1c-5.5,0.6-10.1,5-10.6,10.6C2282.8,528.7,2287.2,534.2,2293.4,535z
				"/>
			<circle class="st2" cx="2282.3" cy="514.8" r="2.7"/>
			<circle class="st2" cx="2286.4" cy="509.7" r="3.9"/>
			<circle class="st2" cx="2294.6" cy="506.3" r="4.9"/>
			<polyline class="st2" points="2284.1,527.1 2275.1,523 2283.9,519 			"/>
			<circle cx="2290.4" cy="520.9" r="1.4"/>
			<polyline class="st0" points="2320.3,585.4 2329.6,585.4 2329.6,567.2 			"/>
			<polyline class="st0" points="2313.8,585.4 2323.1,585.4 2323.1,567.2 			"/>
		</g>
		<g id="chicken_x5F_eat_2_">
			<polyline class="st0" points="2319.9,585.4 2329.1,585.4 2329.1,567.2 			"/>
			<polyline class="st0" points="2313.4,585.4 2322.6,585.4 2322.6,567.2 			"/>
			<path class="st3" d="M2291.2,561.5l0.1,0.2c12.6,12.6,32.9,12.6,45.5,0c11.2-11.1,12.4-28.5,3.7-41c0.1-0.1,0.2-0.2,0.3-0.3
				c0.8-1.2,0.6-2.8-0.6-3.7c-1-0.7-2.3-0.6-3.2,0.1l0,0c0.1-0.1,0.1-0.2,0.2-0.3c1.1-1.5,0.8-3.6-0.7-4.7c-1.4-1-3.1-0.8-4.3,0.2
				l0,0c0.1-0.1,0.1-0.2,0.2-0.3c1.3-1.9,0.9-4.5-0.9-5.8c-1.5-1.2-3.7-1-5.1,0.2l0,0c0,0-10.1,9-2.9,23.4l-10.9,10.9
				c-11.9,11.9-21,2-21.1,2.1l0,0c-5-3.7-12.1-3.1-16.2,1.9c-3.5,4.3-3.5,10.7,0,15C2279.3,564.4,2286.3,565.1,2291.2,561.5z"/>
			<circle class="st2" cx="2269.2" cy="554.8" r="2.7"/>
			<circle class="st2" cx="2268.4" cy="548.3" r="3.9"/>
			<circle class="st2" cx="2271.8" cy="540.2" r="4.9"/>
			<polyline class="st2" points="2279.2,562.3 2269.8,565.7 2273.2,556.7 			"/>
			<circle cx="2279.2" cy="553.4" r="1.4"/>
		</g>
		<g>
			<g>
				<polygon class="st2" points="2756.4,413.1 2749.2,401.6 2737.8,401.6 2726.4,401.6 2719.1,413.1 2737.8,436.4 				"/>
				<line class="st2" x1="2719.1" y1="413.1" x2="2756.4" y2="413.1"/>
				<polyline class="st2" points="2737.8,436.4 2744.4,413.1 2737.8,401.6 				"/>
				<polyline class="st2" points="2737.8,436.4 2731.1,413.1 2737.8,401.6 				"/>
				<line class="st2" x1="2726.4" y1="401.6" x2="2731.1" y2="413.1"/>
			</g>
			<g>
				<path class="st3" d="M2758.8,513.9c0,0,27-25.4-1.2-32.5c0,0,15.1-22.7-19.8-43c-34.9,20.3-19.8,43-19.8,43
					c-28.3,7.1-1.2,32.5-1.2,32.5c-31.9,17.7,21,33.3,21,33.3S2790.6,531.6,2758.8,513.9z"/>
				<line class="st2" x1="2737.8" y1="531.6" x2="2737.8" y2="495.3"/>
				<line class="st0" x1="2737.8" y1="527.9" x2="2737.8" y2="492.1"/>
				<line class="st2" x1="2737.8" y1="586.2" x2="2737.8" y2="547.2"/>
			</g>
		</g>
		<g>
			<g>
				<path class="st3" d="M1576.1,379c0,0,29.9-28.1-1.3-35.9c0,0,16.7-25.1-21.9-47.5c-38.6,22.4-21.9,47.5-21.9,47.5
					c-31.2,7.8-1.3,35.9-1.3,35.9c-35.2,19.5,23.2,36.8,23.2,36.8S1611.2,398.5,1576.1,379z"/>
				<line class="st2" x1="1552.8" y1="398.5" x2="1552.8" y2="358.5"/>
				<line class="st0" x1="1552.8" y1="394.5" x2="1552.8" y2="355"/>
				<line class="st2" x1="1552.8" y1="461.6" x2="1552.8" y2="415.8"/>
			</g>
		</g>
		<g>
			<line class="st2" x1="1705.4" y1="536.9" x2="1705.4" y2="587.2"/>
			<line class="st2" x1="1695.7" y1="538.6" x2="1705.4" y2="565.6"/>
			<line class="st2" x1="1687" y1="543.6" x2="1705.4" y2="565.6"/>
			<line class="st2" x1="1730.2" y1="551.2" x2="1705.2" y2="565.6"/>
			<line class="st2" x1="1723.9" y1="543.6" x2="1705.4" y2="565.6"/>
			<line class="st2" x1="1715.3" y1="538.6" x2="1705.4" y2="565.6"/>
			<path class="st3" d="M1682.9,550c-0.8,0-1.6,0-2.4,0.1c-0.1,0.8-0.1,1.6-0.1,2.4c0,12.4,10.1,22.5,22.5,22.5c0.8,0,1.6,0,2.5,0
				c0-0.8,0-1.7,0-2.5C1705.4,560.1,1695.4,550,1682.9,550z"/>
			<path class="st3" d="M1727.9,550c0.8,0,1.6,0,2.4,0.1c0.1,0.8,0.1,1.6,0.1,2.4c0,12.4-10.1,22.5-22.5,22.5c-0.8,0-1.6,0-2.5,0
				c0-1,0-1.7,0-2.5C1705.4,560.1,1715.5,550,1727.9,550z"/>
			<circle class="st3" cx="1705.4" cy="536.9" r="2.1"/>
			<circle class="st3" cx="1695.7" cy="538.6" r="2.1"/>
			<circle class="st3" cx="1715.3" cy="538.6" r="2.1"/>
			<circle class="st3" cx="1723.9" cy="543.6" r="2.1"/>
			<circle class="st3" cx="1687" cy="543.6" r="2.1"/>
		</g>
		<g>
			<rect x="2106.9" y="465.5" class="st3" width="77.6" height="121.7"/>
			<circle class="st2" cx="2145.9" cy="500" r="22.6"/>
			<circle class="st2" cx="2145.9" cy="500" r="7.6"/>
			<circle class="st2" cx="2145.9" cy="553" r="22.6"/>
			<circle class="st2" cx="2145.9" cy="553" r="7.6"/>
			<polyline class="st2" points="2168.8,468.8 2181.2,468.8 2181.2,481.4 			"/>
			<polyline class="st2" points="2110.2,481.4 2110.2,468.8 2122.8,468.8 			"/>
			<polyline class="st2" points="2168.8,584.1 2181.2,584.1 2181.2,571.6 			"/>
			<polyline class="st2" points="2110.2,571.6 2110.2,584.1 2122.8,584.1 			"/>
		</g>
		<polygon id="play_2_" class="st3" points="2621.8,553.1 2612.8,547.8 2621.8,542.6 		"/>
		<g>
			<line class="st2" x1="2221.3" y1="536.1" x2="2221.3" y2="586.5"/>
			<line class="st2" x1="2211.6" y1="537.8" x2="2221.3" y2="564.9"/>
			<line class="st2" x1="2202.8" y1="542.8" x2="2221.3" y2="564.9"/>
			<line class="st2" x1="2246.1" y1="550.5" x2="2221.1" y2="564.9"/>
			<line class="st2" x1="2239.8" y1="542.8" x2="2221.3" y2="564.9"/>
			<line class="st2" x1="2231.1" y1="537.8" x2="2221.3" y2="564.9"/>
			<path class="st3" d="M2198.8,549.2c-0.8,0-1.6,0-2.4,0.1c-0.1,0.8-0.1,1.6-0.1,2.4c0,12.4,10.1,22.5,22.5,22.5c0.8,0,1.6,0,2.5,0
				c0-0.8,0-1.7,0-2.5C2221.3,559.3,2211.2,549.2,2198.8,549.2z"/>
			<path class="st3" d="M2243.8,549.2c0.8,0,1.6,0,2.4,0.1c0.1,0.8,0.1,1.6,0.1,2.4c0,12.4-10.1,22.5-22.5,22.5c-0.8,0-1.6,0-2.5,0
				c0-1,0-1.7,0-2.5C2221.3,559.3,2231.4,549.2,2243.8,549.2z"/>
			<circle class="st3" cx="2221.3" cy="536.1" r="2.1"/>
			<circle class="st3" cx="2211.6" cy="537.8" r="2.1"/>
			<circle class="st3" cx="2231.1" cy="537.8" r="2.1"/>
			<circle class="st3" cx="2239.8" cy="542.8" r="2.1"/>
			<circle class="st3" cx="2202.8" cy="542.8" r="2.1"/>
		</g>
		<path id="drip1_2_" class="st4" d="M2487.6,607.6c0,1.9,1.5,3.4,3.4,3.4c1.9,0,3.4-1.5,3.4-3.4c0-1.8-3.3-7.1-3.4-7.1
			C2490.9,600.5,2487.6,605.8,2487.6,607.6z"/>
		<path id="drip3_2_" class="st4" d="M2487.6,646.9c0,1.9,1.5,3.4,3.4,3.4c1.9,0,3.4-1.5,3.4-3.4c0-1.8-3.3-7.1-3.4-7.1
			C2490.9,639.8,2487.6,645.1,2487.6,646.9z"/>
		<g>
			<path d="M2532.3,542.8h-4.1v-5.1l-3.6,5.1h-3.5v-13.2h4.1v5.1l3.6-5.1h3.5V542.8z M2530.6,541.2v-10h-0.5l-6.5,9.1v-9.1h-0.5v10
				h0.5l6.5-9.1v9.1H2530.6z"/>
			<path d="M2517.9,538.9c-0.4,0.8-0.9,1.6-1.5,2.2c-0.6,0.6-1.4,1.1-2.2,1.5c-0.9,0.3-1.7,0.5-2.7,0.5s-1.9-0.1-2.7-0.5
				c-0.8-0.4-1.6-0.9-2.2-1.5c-0.6-0.6-1.1-1.4-1.5-2.2c-0.3-0.9-0.5-1.7-0.5-2.7s0.1-1.9,0.5-2.7c0.4-0.8,0.9-1.6,1.5-2.2
				c0.6-0.6,1.4-1.1,2.2-1.5c0.9-0.3,1.7-0.5,2.7-0.5s1.9,0.1,2.7,0.5c0.8,0.4,1.6,0.9,2.2,1.5c0.6,0.6,1.1,1.4,1.5,2.2
				c0.3,0.9,0.5,1.8,0.5,2.7S2518.2,538,2517.9,538.9z M2516.1,534.2c-0.3-0.6-0.6-1.1-1.1-1.6s-1-0.8-1.6-1.1
				c-0.6-0.3-1.3-0.4-2-0.4s-1.4,0.1-2,0.4c-0.6,0.3-1.1,0.6-1.6,1.1s-0.8,1-1.1,1.6c-0.3,0.6-0.4,1.3-0.4,2s0.1,1.4,0.4,2
				c0.3,0.6,0.6,1.1,1.1,1.6s1,0.8,1.6,1.1c0.6,0.3,1.3,0.4,2,0.4s1.4-0.1,2-0.4c0.6-0.3,1.1-0.6,1.6-1.1s0.8-1,1.1-1.6
				c0.3-0.6,0.4-1.3,0.4-2S2516.4,534.8,2516.1,534.2z M2509.8,540.3c-0.5-0.3-1-0.6-1.4-1c-0.4-0.4-0.8-0.9-1-1.4
				c-0.3-0.6-0.4-1.2-0.4-1.8c0-0.7,0.2-1.3,0.4-1.8c0.3-0.5,0.6-1,1-1.4c0.4-0.4,0.9-0.8,1.4-1c0.6-0.3,1.2-0.4,1.8-0.4
				c0.7,0,1.3,0.2,1.8,0.4c0.5,0.3,1,0.6,1.4,1c0.4,0.4,0.8,0.9,1,1.4c0.3,0.6,0.4,1.2,0.4,1.8c0,0.7-0.2,1.3-0.4,1.8
				c-0.3,0.5-0.6,1-1,1.4c-0.4,0.4-0.9,0.8-1.4,1c-0.6,0.3-1.2,0.4-1.8,0.4C2510.8,540.7,2510.2,540.6,2509.8,540.3z M2514.1,535.1
				c-0.2-0.4-0.3-0.6-0.6-0.9c-0.3-0.3-0.6-0.5-0.9-0.6c-0.4-0.1-0.7-0.2-1.1-0.2s-0.8,0.1-1.1,0.2c-0.4,0.2-0.6,0.3-0.9,0.6
				s-0.5,0.6-0.6,0.9c-0.1,0.4-0.2,0.7-0.2,1.1c0,0.4,0.1,0.8,0.2,1.1c0.2,0.4,0.4,0.7,0.6,0.9c0.3,0.3,0.6,0.5,0.9,0.6
				c0.4,0.1,0.7,0.2,1.1,0.2s0.8-0.1,1.1-0.2c0.4-0.2,0.7-0.4,0.9-0.6c0.3-0.3,0.5-0.6,0.6-0.9c0.1-0.4,0.2-0.7,0.2-1.1
				C2514.2,535.8,2514.2,535.5,2514.1,535.1z"/>
			<path d="M2501.8,542.8h-4.1v-5.1l-3.6,5.1h-3.5v-13.2h4.1v5.1l3.6-5.1h3.5V542.8z M2500.1,541.2v-10h-0.5l-6.5,9.1v-9.1h-0.5v10
				h0.5l6.5-9.1v9.1H2500.1z"/>
			<path d="M2532.3,560.2h-4.2v-4.9h-2.3v4.9h-4.2V547h4.2v4.5h2.3V547h4.2V560.2z M2530.3,558.6v-10h-0.5v4.5h-5.8v-4.5h-0.5v10
				h0.5v-5h5.8v5H2530.3z"/>
			<path d="M2517.4,560.2h-7.7l-1.1-3.5h2.5l-0.3-0.5c-0.3-0.7-0.6-1.3-0.9-1.8c-0.2-0.5-0.4-1-0.6-1.4c-0.2-0.4-0.3-0.8-0.4-1.1
				c-0.1-0.4-0.1-0.7-0.1-1.1c0-0.7,0.2-1.4,0.5-1.9c0.3-0.6,0.7-1,1.2-1.3c0.4-0.3,1-0.6,1.6-0.7c0.6-0.1,1.3-0.2,1.9-0.2
				c0.2,0,0.3,0,0.5,0c0.1,0,0.3,0,0.4,0c0.1,0.1,0.3,0.1,0.4,0.1c0.2,0,0.3,0.1,0.5,0.1v3.7c-0.1,0-0.2,0-0.3,0c-0.1,0-0.2,0-0.3,0
				c-0.1,0-0.2,0-0.3,0c-1.1,0-1.6,0.4-1.6,1.3c0,0.3,0,0.5,0.1,0.8c0,0.3,0.2,0.7,0.5,1.2L2517.4,560.2z M2510.8,558.6
				L2510.8,558.6l3.9,0.1l-2.6-4.9c-0.3-0.5-0.5-0.9-0.6-1.3s-0.2-0.8-0.2-1.2c0-0.7,0.2-1.2,0.7-1.6c0.4-0.4,1-0.6,1.8-0.6h0.1h0.1
				h0.1v-0.5h-0.1h-0.1h-0.1c-0.9,0-1.6,0.3-2.2,0.7c-0.5,0.5-0.8,1.1-0.8,2c0,0.4,0,0.9,0.2,1.3s0.4,0.8,0.6,1.3l2.2,4.2h-3.2
				L2510.8,558.6L2510.8,558.6z"/>
			<path d="M2503.8,556.3c-0.4,0.8-0.9,1.6-1.5,2.2s-1.4,1.1-2.2,1.5c-0.9,0.3-1.7,0.5-2.7,0.5s-1.9-0.1-2.7-0.5s-1.6-0.9-2.2-1.5
				c-0.6-0.6-1.1-1.4-1.5-2.2c-0.3-0.9-0.5-1.7-0.5-2.7s0.1-1.9,0.5-2.7c0.4-0.8,0.9-1.6,1.5-2.2s1.3-1.2,2.2-1.5
				c0.9-0.3,1.7-0.5,2.7-0.5s1.9,0.1,2.7,0.5c0.8,0.4,1.6,0.9,2.2,1.5c0.6,0.6,1.1,1.4,1.5,2.2c0.3,0.9,0.5,1.8,0.5,2.7
				C2504.2,554.6,2504.1,555.5,2503.8,556.3z M2501.9,551.6c-0.3-0.6-0.6-1.1-1.1-1.6s-1-0.8-1.6-1.1c-0.6-0.3-1.3-0.4-2-0.4
				s-1.4,0.1-2,0.4c-0.6,0.3-1.1,0.6-1.6,1.1s-0.8,1-1.1,1.6s-0.4,1.3-0.4,2s0.1,1.4,0.4,2s0.6,1.1,1.1,1.6s1,0.8,1.6,1.1
				c0.6,0.3,1.3,0.4,2,0.4s1.4-0.1,2-0.4c0.6-0.3,1.1-0.6,1.6-1.1s0.8-1,1.1-1.6s0.4-1.3,0.4-2S2502.2,552.3,2501.9,551.6z
				 M2495.6,557.8c-0.5-0.3-1-0.6-1.4-1c-0.4-0.4-0.8-0.9-1-1.4c-0.3-0.6-0.4-1.2-0.4-1.8c0-0.7,0.2-1.3,0.4-1.8
				c0.3-0.5,0.6-1,1-1.4c0.4-0.4,0.9-0.8,1.4-1c0.6-0.3,1.2-0.4,1.8-0.4c0.7,0,1.3,0.2,1.8,0.4c0.5,0.3,1,0.6,1.4,1
				c0.4,0.4,0.8,0.9,1,1.4c0.3,0.6,0.4,1.2,0.4,1.8c0,0.7-0.2,1.3-0.4,1.8c-0.3,0.5-0.6,1-1,1.4c-0.4,0.4-0.9,0.8-1.4,1
				c-0.6,0.3-1.2,0.4-1.8,0.4C2496.6,558.2,2496.1,558,2495.6,557.8z M2499.8,552.5c-0.2-0.4-0.3-0.6-0.6-0.9s-0.5-0.5-0.9-0.6
				c-0.4-0.1-0.7-0.2-1.1-0.2s-0.7,0-1.1,0.2c-0.4,0.2-0.6,0.3-0.9,0.6s-0.5,0.6-0.6,0.9c-0.1,0.4-0.2,0.7-0.2,1.1s0.1,0.8,0.2,1.1
				c0.2,0.4,0.4,0.7,0.6,0.9c0.3,0.3,0.5,0.5,0.9,0.6c0.4,0.1,0.7,0.2,1.1,0.2s0.7,0,1.1-0.2c0.4-0.2,0.7-0.4,0.9-0.6
				c0.3-0.3,0.5-0.6,0.6-0.9c0.1-0.4,0.2-0.7,0.2-1.1S2499.9,552.9,2499.8,552.5z"/>
		</g>
		<g>
			<path class="st3" d="M1865.7,634c0.8,0,1.6,0,2.4-0.1c0.1-0.8,0.1-1.6,0.1-2.4c0-12.4-10.1-22.5-22.5-22.5c-0.8,0-1.6,0-2.5,0
				c0,0.8,0,1.7,0,2.5C1843.2,623.9,1853.2,634,1865.7,634z"/>
			<path class="st3" d="M1840.7,608.2c0.8-0.2,1.5-0.6,2.2-0.9c-0.2-0.8-0.4-1.5-0.7-2.3c-4.2-11.7-17.1-17.8-28.8-13.6
				c-0.8,0.2-1.6,0.5-2.4,0.8c0.2,0.8,0.5,1.6,0.8,2.4C1815.9,606.3,1828.8,612.4,1840.7,608.2z"/>
			<path class="st3" d="M1843.2,611.5c0-0.8,0-1.6-0.1-2.4c-0.8-0.1-1.6-0.1-2.4-0.1c-12.4,0-22.5,10.1-22.5,22.5c0,0.8,0,1.6,0,2.5
				c0.8,0,1.7,0,2.5,0C1833,634,1843.2,623.9,1843.2,611.5z"/>
			<path class="st2" d="M1791.2,559.9c28.6,0,51.9,23.2,51.9,51.9"/>
			<line class="st0" x1="1821.2" y1="597.1" x2="1842.8" y2="607.3"/>
			<polyline class="st0" points="1826.3,625.6 1826.3,623.3 1831.4,623.3 1831.4,618.6 1836.2,618.6 1836.2,614.1 1838.7,614.1 
				1843.2,609 1860.8,626.7 			"/>
		</g>
		<circle class="st2" cx="1843.5" cy="634" r="3.3"/>
		<circle class="st2" cx="1834.2" cy="643.4" r="3.3"/>
		<circle class="st2" cx="1843.5" cy="651.2" r="3.3"/>
		<g>
			<g>
				<path class="st3" d="M1914.8,584.2c0.6-0.6,1.1-1.2,1.6-1.8c-0.5-0.6-1-1.2-1.6-1.8c-8.8-8.8-23-8.8-31.8,0
					c-0.6,0.6-1.2,1.2-1.8,1.8c0.6,0.6,1.2,1.2,1.8,1.8C1891.7,593,1905.9,593,1914.8,584.2z"/>
				<path class="st3" d="M1878.8,583.7c0.3-0.7,0.6-1.5,0.9-2.2c-0.7-0.4-1.4-0.8-2.1-1.1c-11.3-5.3-24.7-0.5-30,10.7
					c-0.4,0.8-0.7,1.5-1.1,2.3c0.8,0.4,1.6,0.8,2.3,1.1C1860,599.8,1873.4,595,1878.8,583.7z"/>
				<path class="st3" d="M1882.9,584.2c-0.6-0.6-1.2-1.1-1.8-1.6c-0.6,0.5-1.2,1-1.8,1.6c-8.8,8.8-8.8,23,0,31.8
					c0.6,0.6,1.2,1.2,1.8,1.8c0.6-0.6,1.2-1.2,1.8-1.8C1891.7,607.3,1891.7,593,1882.9,584.2z"/>
				<path class="st2" d="M1825.7,573.6c19-8.3,42-4.6,57.5,10.9"/>
				<line class="st0" x1="1857.2" y1="589.6" x2="1879.7" y2="581.6"/>
				<polyline class="st0" points="1880.9,606.1 1879.3,604.5 1882.9,600.8 1879.7,597.5 1882.9,594.2 1879.8,591 1881.5,589.3 
					1881.2,582.4 1906.2,582.4 				"/>
			</g>
			<circle class="st2" cx="1899.2" cy="599.8" r="3.3"/>
			<path class="st2" d="M1900.4,614.3c4-4,0.7-4,4.7,0c1.3,1.3,1.3,3.4,0,4.7s-3.4,1.3-4.7,0
				C1899.2,617.7,1899.2,615.5,1900.4,614.3z"/>
			<circle class="st2" cx="1889.5" cy="622.2" r="3.3"/>
		</g>
		<g>
			<path d="M1773,414.9h-4.2l-1.7-5.1l-1.7,5.1h-4.2l-5.6-16.9h5.7l2,5.9l2-5.9h3.7l2,5.9l2-5.9h5.7L1773,414.9z M1771.4,412.9
				l4.2-12.9h-0.7l-3.9,11.7l-3.7-11.7l-3.7,11.7l-3.9-11.7h-0.7l4.2,12.9h0.6l3.4-10.6l3.4,10.6H1771.4z"/>
			<path d="M1754.4,398l0,17.1h-6.9c-1,0-1.8-0.2-2.6-0.4c-0.8-0.3-1.5-0.6-2-1.1s-0.9-1-1.2-1.7s-0.4-1.4-0.4-2.2
				c0-0.7,0.1-1.3,0.3-1.8s0.4-0.9,0.7-1.2c0.3-0.4,0.6-0.7,1-0.9c-0.2-0.2-0.4-0.5-0.6-0.8c-0.1-0.3-0.3-0.6-0.4-1
				s-0.2-0.9-0.2-1.4c0-0.8,0.1-1.4,0.4-2c0.3-0.5,0.7-1,1.2-1.4s1.1-0.7,1.8-0.9c0.7-0.2,1.5-0.3,2.3-0.3H1754.4L1754.4,398z
				 M1748.2,412.7h3.7v-12.9h-3.7c-1.2,0-2.1,0.3-2.8,0.8s-1,1.3-1,2.4c0,0.6,0.1,1.1,0.3,1.5c0.3,0.4,0.5,0.7,0.8,0.9
				c0.3,0.3,0.7,0.5,1.1,0.6c-0.5,0.1-1,0.3-1.4,0.6s-0.7,0.6-1,1c-0.3,0.5-0.4,1-0.4,1.7c0,1.1,0.4,1.9,1.1,2.6s1.8,1,3.3,1V412.7z
				 M1748.2,405.9c-1.1,0-1.9-0.2-2.4-0.7s-0.7-1.1-0.7-1.9s0.2-1.4,0.7-1.9s1.3-0.7,2.4-0.7h3v5.2H1748.2z M1751.2,412.3l-3.1,0
				c-1.1,0-2-0.2-2.7-0.7c-0.7-0.4-1-1.2-1-2.2c0-0.5,0.1-0.9,0.3-1.3c0.2-0.4,0.5-0.7,0.8-0.9c0.4-0.2,0.8-0.4,1.2-0.5
				c0.5-0.1,1-0.2,1.5-0.2h3V412.3L1751.2,412.3z M1748.7,404.3h0.6V402h-0.6c-0.9,0-1.3,0.4-1.3,1.2
				C1747.3,404,1747.8,404.3,1748.7,404.3z M1748.5,410.9h0.6V408h-0.6c-1.3,0-1.9,0.5-1.9,1.5s0.6,1.5,1.9,1.5V410.9z"/>
		</g>
		<circle cx="1759.5" cy="380.2" r="1.8"/>
		<path id="drip2_2_" class="st2" d="M2499.1,624.9c4-4,0.7-4,4.7,0c1.3,1.3,1.3,3.4,0,4.7s-3.4,1.3-4.7,0
			C2497.6,628.3,2497.6,626.2,2499.1,624.9z"/>
		<polygon id="bolt_2_" class="st3" points="2272.1,622.1 2259.9,625.2 2278.1,636.8 2265.8,639.9 2301.4,659.8 2281.9,642 
			2293.8,639 2276.1,627 2288.1,624.3 2250.6,601.5 		"/>
		<g id="music-note2_2_">
			<circle class="st2" cx="2518.6" cy="371.2" r="6.9"/>
			<circle class="st2" cx="2490.9" cy="371.2" r="6.9"/>
			<polyline class="st2" points="2511.6,371.2 2511.6,339.3 2511.6,339.3 2508.1,335.8 2504.8,339.2 2501.4,335.8 2497.9,339.3 
				2494.4,335.8 2490.9,339.3 2487.4,335.8 2483.9,339.3 2483.9,339.3 2483.9,371.2 			"/>
		</g>
		<g id="music-note4_2_">
			<circle class="st2" cx="2363.1" cy="334.8" r="6.9"/>
			<circle class="st2" cx="2335.4" cy="334.8" r="6.9"/>
			<polyline class="st2" points="2356.2,334.8 2356.2,302.9 2356.2,302.9 2352.8,299.4 2349.4,302.8 2345.9,299.4 2342.4,302.9 
				2338.9,299.4 2335.4,302.9 2331.9,299.4 2328.4,302.9 2328.4,302.9 2328.4,334.8 			"/>
		</g>
		<g>
			<circle class="st2" cx="2574.8" cy="455.1" r="6.9"/>
			<polyline class="st2" points="2567.8,455.1 2567.8,423.1 2567.8,423.1 2564.3,419.7 2560.9,423.1 2557.4,419.6 2554.1,423.1 			
				"/>
		</g>
		<g id="music-note3_2_">
			<circle class="st2" cx="2423.4" cy="412.3" r="6.9"/>
			<polyline class="st2" points="2416.4,412.3 2416.4,380.3 2416.4,380.3 2412.9,376.8 2409.6,380.2 2406.1,376.8 2402.6,380.3 			
				"/>
		</g>
		
			<animate  fill="freeze" xlink:href="#cloud-move" calcMode="linear" begin="click" restart="always" dur="1s" to="450" attributeName="cx" accumulate="none" additive="replace" from="50">
			</animate>
		<g id="dumstick_2_">
			<path class="st2" d="M2315.9,555.3l-11.4,11.4c-1.3-2-4.1-2.2-5.7-0.6c-2.7,2.8,0.1,7.4,3.8,6.1c-1.2,3.7,3.4,6.5,6.1,3.8
				c1.6-1.6,1.4-4.3-0.5-5.6l11.4-11.4"/>
			<path class="st3" d="M2309.9,561.3l-1-7.8c0,0-0.6-7,2.6-11.8c4.7-7.3,12.6-15,18-16c8.6-1.6,14.5,2.7,16,10
				c2,9.7-10.5,20.5-16,25.7c-2.9,2.7-9,2.8-9,2.8h-7.6L2309.9,561.3z"/>
		</g>
		<g id="pop_2_">
			<line class="st2" x1="2307.1" y1="550.9" x2="2313.1" y2="550.9"/>
			<line class="st2" x1="2322.6" y1="535.4" x2="2322.6" y2="561.1"/>
			<line class="st2" x1="2311.6" y1="540" x2="2330.8" y2="559.2"/>
			<line class="st2" x1="2315.1" y1="558.3" x2="2333.4" y2="539.9"/>
			<line class="st2" x1="2338.1" y1="550.8" x2="2310.1" y2="550.8"/>
			<line class="st2" x1="2322.6" y1="566.3" x2="2322.6" y2="560.2"/>
			<line class="st2" x1="2333.4" y1="561.8" x2="2329.1" y2="557.5"/>
			<line class="st2" x1="2315.9" y1="557.5" x2="2311.6" y2="561.8"/>
		</g>
		<circle id="bass1_2_" class="st2" cx="2145.9" cy="500" r="19.3"/>
		<circle id="bass2_2_" class="st2" cx="2145.9" cy="553" r="19.3"/>
		<circle id="stereo1_2_" class="st2" cx="2657.3" cy="563" r="13.4"/>
		<circle class="st2" cx="2579.3" cy="563" r="13.4"/>
	</g>
</g>
<polygon class="st5" points="1529.7,463 1536.8,463 1485.7,586.3 1475.1,586.3 "/>
</svg>
