<?xml version="1.0" encoding="utf-8"?>
<!-- Generator: Adobe Illustrator 19.1.0, SVG Export Plug-In . SVG Version: 6.00 Build 0)  -->
<svg version="1.1" id="Layer_1" xmlns="http://www.w3.org/2000/svg" xmlns:xlink="http://www.w3.org/1999/xlink" x="0px" y="0px"
	 viewBox="0 0 89.4 175.2" style="enable-background:new 0 0 89.4 175.2;" xml:space="preserve">
<style type="text/css">
	.st0{fill:#E72F6F;}
	.st1{fill:#010202;}
	.st2{fill:none;stroke:#010202;stroke-width:4;stroke-linejoin:round;stroke-miterlimit:10;}
	.st3{fill:none;}
</style>
<g>
	<path class="st0" d="M0,117.4h18.1c3.5,0,6.8,0.4,9.8,1.3c3,0.9,5.6,2.2,7.8,3.9c2.2,1.7,3.9,3.9,5.2,6.4c1.2,2.5,1.9,5.5,1.9,8.7
		c0,2.6-0.4,4.8-1.2,6.7c-0.8,1.8-1.6,3.3-2.6,4.5c-1.1,1.4-2.3,2.5-3.7,3.5l10.4,17.3H24.9l-8.3-13.3v13.3H0V117.4z M16.2,151.5
		c2.2,0,4.3-0.2,6.3-0.6l7.9,12.6H33l-8.3-13.2c3-1,5.4-2.5,7.1-4.6c1.8-2.1,2.7-4.7,2.7-8c0-2.3-0.5-4.3-1.4-6
		c-0.9-1.7-2.2-3.2-3.9-4.4c-1.6-1.2-3.6-2.1-5.8-2.7c-2.2-0.6-4.6-0.9-7.2-0.9H7.8v39.8h2.2v-11.9H16.2z M9.9,149.7v-24.1h6.3
		c5,0,9,1,11.8,3.1c2.8,2.1,4.3,5.1,4.3,8.9c0,3.9-1.4,6.8-4.3,8.9c-2.8,2.1-6.8,3.1-11.8,3.1H9.9z M16.6,143.1h0.9
		c2.1,0,3.9-0.4,5.3-1.3c1.5-0.9,2.2-2.4,2.2-4.5c0-2.1-0.7-3.6-2.2-4.5c-1.5-0.9-3.2-1.3-5.3-1.3h-0.9V143.1z"/>
	<path class="st0" d="M47.8,117.4h17.6v17.8h6.2v-17.8h17.6v52.3H71.7v-19.4h-6.2v19.4H47.8V117.4z M58.7,163.5v-19.8h19.7v19.8h2.2
		v-39.8h-2.2v18H58.7v-18h-2.2v39.8H58.7z"/>
</g>
<g>
	<circle class="st1" cx="53.2" cy="19" r="2.8"/>
	<path class="st2" d="M30.2,97.5c-3.9,3.5-7.2,3.5-10.4,3.5C8.4,101,2,86.2,2,86.2c1.5,0.2,2.9,0.4,4.1,0.4c9.8,0,10-7.3,10-7.3
		v-6.7c0-3.8,3.1-6.9,6.9-6.9c0.7,0,1.3,0.3,1.7,0.8c0.8,6.5,3.7,12.8,8.6,17.8c0.1,0.1,0.1,0.1,0.2,0.2l1.8,1.8
		C35.3,94,30.2,97.5,30.2,97.5z"/>
	<path class="st2" d="M35.2,86.3l-1.8-1.8c-0.1-0.1-0.1-0.1-0.2-0.2c-4.9-5-7.7-11.3-8.6-17.8c-0.9-10.1,8.2-18.6,8.2-18.6l5.5-5.5
		c0,0-10.3-9.7-4-26.8c0,0-3.5-9.2,4-13.6l7.4,7.4h20.5l0,0l0,0c2.6,0,5,1.5,5.8,3.9c1.4,4-1.1,7.8-4.7,8.5l0,0
		c-1.3,0.3-2.2,1.4-2.2,2.7c0,0.8,0.3,1.5,0.9,2l0,0l19.4,19.4c1.2,1.2,1.9,2.9,1.9,4.7l0,17.7c0,3.9-3.2,7-7.1,6.8
		c-3.8-0.1-6.6-3.4-6.6-7.1l0-12l-24.8,25l0,19.3c0,3.9-3.2,7-7.1,6.8c-3.8-0.1-6.6-3.4-6.6-7.1L35.2,86.3z"/>
	<line class="st3" x1="0" y1="50.1" x2="0" y2="175.2"/>
</g>
</svg>
